<svg width="365" height="200" viewBox="0 0 365 200" fill="none" xmlns="http://www.w3.org/2000/svg">
<rect width="365" height="200" rx="8" fill="#ECEBEB"/>
<circle cx="51" cy="36" r="30" fill="#D9D9D9"/>
<path d="M33.614 95.35C33.2847 95.5407 32.9467 95.74 32.6 95.948C32.2533 96.1387 31.9067 96.3293 31.56 96.52C31.4387 96.2947 31.3087 96.0693 31.17 95.844C31.0487 95.6187 30.9187 95.402 30.78 95.194C31.144 95.0033 31.4907 94.8127 31.82 94.622C32.1667 94.414 32.5133 94.2147 32.86 94.024C32.5307 93.816 32.1927 93.608 31.846 93.4C31.4993 93.192 31.1527 92.984 30.806 92.776C30.9273 92.568 31.04 92.3687 31.144 92.178C31.2653 91.97 31.3867 91.762 31.508 91.554C31.8547 91.7447 32.2013 91.944 32.548 92.152C32.912 92.36 33.2673 92.568 33.614 92.776V90.28H35.174C35.1567 90.696 35.148 91.112 35.148 91.528C35.148 91.944 35.1393 92.36 35.122 92.776C35.486 92.568 35.85 92.3687 36.214 92.178C36.578 91.97 36.9333 91.7707 37.28 91.58C37.4013 91.788 37.514 91.996 37.618 92.204C37.7393 92.3947 37.8607 92.594 37.982 92.802C37.6353 93.01 37.28 93.218 36.916 93.426C36.5693 93.634 36.214 93.842 35.85 94.05C36.1967 94.258 36.5433 94.466 36.89 94.674C37.2367 94.8647 37.592 95.064 37.956 95.272C37.8347 95.48 37.7047 95.6967 37.566 95.922C37.4447 96.1473 37.3147 96.3727 37.176 96.598C36.8293 96.39 36.4827 96.182 36.136 95.974C35.7893 95.766 35.4427 95.558 35.096 95.35C35.096 95.7487 35.0873 96.1473 35.07 96.546C35.07 96.9273 35.07 97.3173 35.07 97.716H33.614V95.35ZM42.323 95.35C41.9937 95.5407 41.6557 95.74 41.309 95.948C40.9623 96.1387 40.6157 96.3293 40.269 96.52C40.1477 96.2947 40.0177 96.0693 39.879 95.844C39.7577 95.6187 39.6277 95.402 39.489 95.194C39.853 95.0033 40.1997 94.8127 40.529 94.622C40.8757 94.414 41.2223 94.2147 41.569 94.024C41.2397 93.816 40.9017 93.608 40.555 93.4C40.2083 93.192 39.8617 92.984 39.515 92.776C39.6363 92.568 39.749 92.3687 39.853 92.178C39.9743 91.97 40.0957 91.762 40.217 91.554C40.5637 91.7447 40.9103 91.944 41.257 92.152C41.621 92.36 41.9763 92.568 42.323 92.776V90.28H43.883C43.8657 90.696 43.857 91.112 43.857 91.528C43.857 91.944 43.8483 92.36 43.831 92.776C44.195 92.568 44.559 92.3687 44.923 92.178C45.287 91.97 45.6423 91.7707 45.989 91.58C46.1103 91.788 46.223 91.996 46.327 92.204C46.4483 92.3947 46.5697 92.594 46.691 92.802C46.3443 93.01 45.989 93.218 45.625 93.426C45.2783 93.634 44.923 93.842 44.559 94.05C44.9057 94.258 45.2523 94.466 45.599 94.674C45.9457 94.8647 46.301 95.064 46.665 95.272C46.5437 95.48 46.4137 95.6967 46.275 95.922C46.1537 96.1473 46.0237 96.3727 45.885 96.598C45.5383 96.39 45.1917 96.182 44.845 95.974C44.4983 95.766 44.1517 95.558 43.805 95.35C43.805 95.7487 43.7963 96.1473 43.779 96.546C43.779 96.9273 43.779 97.3173 43.779 97.716H42.323V95.35ZM51.032 95.35C50.7026 95.5407 50.3646 95.74 50.018 95.948C49.6713 96.1387 49.3246 96.3293 48.978 96.52C48.8566 96.2947 48.7266 96.0693 48.588 95.844C48.4666 95.6187 48.3366 95.402 48.198 95.194C48.562 95.0033 48.9086 94.8127 49.238 94.622C49.5846 94.414 49.9313 94.2147 50.278 94.024C49.9486 93.816 49.6106 93.608 49.264 93.4C48.9173 93.192 48.5706 92.984 48.224 92.776C48.3453 92.568 48.458 92.3687 48.562 92.178C48.6833 91.97 48.8046 91.762 48.926 91.554C49.2726 91.7447 49.6193 91.944 49.966 92.152C50.33 92.36 50.6853 92.568 51.032 92.776V90.28H52.592C52.5746 90.696 52.566 91.112 52.566 91.528C52.566 91.944 52.5573 92.36 52.54 92.776C52.904 92.568 53.268 92.3687 53.632 92.178C53.996 91.97 54.3513 91.7707 54.698 91.58C54.8193 91.788 54.932 91.996 55.036 92.204C55.1573 92.3947 55.2786 92.594 55.4 92.802C55.0533 93.01 54.698 93.218 54.334 93.426C53.9873 93.634 53.632 93.842 53.268 94.05C53.6146 94.258 53.9613 94.466 54.308 94.674C54.6546 94.8647 55.01 95.064 55.374 95.272C55.2526 95.48 55.1226 95.6967 54.984 95.922C54.8626 96.1473 54.7326 96.3727 54.594 96.598C54.2473 96.39 53.9006 96.182 53.554 95.974C53.2073 95.766 52.8606 95.558 52.514 95.35C52.514 95.7487 52.5053 96.1473 52.488 96.546C52.488 96.9273 52.488 97.3173 52.488 97.716H51.032V95.35ZM59.741 95.35C59.4116 95.5407 59.0736 95.74 58.727 95.948C58.3803 96.1387 58.0336 96.3293 57.687 96.52C57.5656 96.2947 57.4356 96.0693 57.297 95.844C57.1756 95.6187 57.0456 95.402 56.907 95.194C57.271 95.0033 57.6176 94.8127 57.947 94.622C58.2936 94.414 58.6403 94.2147 58.987 94.024C58.6576 93.816 58.3196 93.608 57.973 93.4C57.6263 93.192 57.2796 92.984 56.933 92.776C57.0543 92.568 57.167 92.3687 57.271 92.178C57.3923 91.97 57.5136 91.762 57.635 91.554C57.9816 91.7447 58.3283 91.944 58.675 92.152C59.039 92.36 59.3943 92.568 59.741 92.776V90.28H61.301C61.2836 90.696 61.275 91.112 61.275 91.528C61.275 91.944 61.2663 92.36 61.249 92.776C61.613 92.568 61.977 92.3687 62.341 92.178C62.705 91.97 63.0603 91.7707 63.407 91.58C63.5283 91.788 63.641 91.996 63.745 92.204C63.8663 92.3947 63.9876 92.594 64.109 92.802C63.7623 93.01 63.407 93.218 63.043 93.426C62.6963 93.634 62.341 93.842 61.977 94.05C62.3236 94.258 62.6703 94.466 63.017 94.674C63.3636 94.8647 63.719 95.064 64.083 95.272C63.9616 95.48 63.8316 95.6967 63.693 95.922C63.5716 96.1473 63.4416 96.3727 63.303 96.598C62.9563 96.39 62.6096 96.182 62.263 95.974C61.9163 95.766 61.5696 95.558 61.223 95.35C61.223 95.7487 61.2143 96.1473 61.197 96.546C61.197 96.9273 61.197 97.3173 61.197 97.716H59.741V95.35ZM68.4499 95.35C68.1206 95.5407 67.7826 95.74 67.4359 95.948C67.0893 96.1387 66.7426 96.3293 66.3959 96.52C66.2746 96.2947 66.1446 96.0693 66.0059 95.844C65.8846 95.6187 65.7546 95.402 65.6159 95.194C65.9799 95.0033 66.3266 94.8127 66.6559 94.622C67.0026 94.414 67.3493 94.2147 67.6959 94.024C67.3666 93.816 67.0286 93.608 66.6819 93.4C66.3353 93.192 65.9886 92.984 65.6419 92.776C65.7633 92.568 65.8759 92.3687 65.9799 92.178C66.1013 91.97 66.2226 91.762 66.3439 91.554C66.6906 91.7447 67.0373 91.944 67.3839 92.152C67.7479 92.36 68.1033 92.568 68.4499 92.776V90.28H70.0099C69.9926 90.696 69.9839 91.112 69.9839 91.528C69.9839 91.944 69.9753 92.36 69.9579 92.776C70.3219 92.568 70.6859 92.3687 71.0499 92.178C71.4139 91.97 71.7693 91.7707 72.1159 91.58C72.2373 91.788 72.3499 91.996 72.4539 92.204C72.5753 92.3947 72.6966 92.594 72.8179 92.802C72.4713 93.01 72.1159 93.218 71.7519 93.426C71.4053 93.634 71.0499 93.842 70.6859 94.05C71.0326 94.258 71.3793 94.466 71.7259 94.674C72.0726 94.8647 72.4279 95.064 72.7919 95.272C72.6706 95.48 72.5406 95.6967 72.4019 95.922C72.2806 96.1473 72.1506 96.3727 72.0119 96.598C71.6653 96.39 71.3186 96.182 70.9719 95.974C70.6253 95.766 70.2786 95.558 69.9319 95.35C69.9319 95.7487 69.9233 96.1473 69.9059 96.546C69.9059 96.9273 69.9059 97.3173 69.9059 97.716H68.4499V95.35ZM77.1589 95.35C76.8296 95.5407 76.4916 95.74 76.1449 95.948C75.7983 96.1387 75.4516 96.3293 75.1049 96.52C74.9836 96.2947 74.8536 96.0693 74.7149 95.844C74.5936 95.6187 74.4636 95.402 74.3249 95.194C74.6889 95.0033 75.0356 94.8127 75.3649 94.622C75.7116 94.414 76.0583 94.2147 76.4049 94.024C76.0756 93.816 75.7376 93.608 75.3909 93.4C75.0443 93.192 74.6976 92.984 74.3509 92.776C74.4723 92.568 74.5849 92.3687 74.6889 92.178C74.8103 91.97 74.9316 91.762 75.0529 91.554C75.3996 91.7447 75.7463 91.944 76.0929 92.152C76.4569 92.36 76.8123 92.568 77.1589 92.776V90.28H78.7189C78.7016 90.696 78.6929 91.112 78.6929 91.528C78.6929 91.944 78.6843 92.36 78.6669 92.776C79.0309 92.568 79.3949 92.3687 79.7589 92.178C80.1229 91.97 80.4783 91.7707 80.8249 91.58C80.9463 91.788 81.0589 91.996 81.1629 92.204C81.2843 92.3947 81.4056 92.594 81.5269 92.802C81.1803 93.01 80.8249 93.218 80.4609 93.426C80.1143 93.634 79.7589 93.842 79.3949 94.05C79.7416 94.258 80.0883 94.466 80.4349 94.674C80.7816 94.8647 81.1369 95.064 81.5009 95.272C81.3796 95.48 81.2496 95.6967 81.1109 95.922C80.9896 96.1473 80.8596 96.3727 80.7209 96.598C80.3743 96.39 80.0276 96.182 79.6809 95.974C79.3343 95.766 78.9876 95.558 78.6409 95.35C78.6409 95.7487 78.6323 96.1473 78.6149 96.546C78.6149 96.9273 78.6149 97.3173 78.6149 97.716H77.1589V95.35ZM85.8679 95.35C85.5386 95.5407 85.2006 95.74 84.8539 95.948C84.5072 96.1387 84.1606 96.3293 83.8139 96.52C83.6926 96.2947 83.5626 96.0693 83.4239 95.844C83.3026 95.6187 83.1726 95.402 83.0339 95.194C83.3979 95.0033 83.7446 94.8127 84.0739 94.622C84.4206 94.414 84.7672 94.2147 85.1139 94.024C84.7846 93.816 84.4466 93.608 84.0999 93.4C83.7532 93.192 83.4066 92.984 83.0599 92.776C83.1812 92.568 83.2939 92.3687 83.3979 92.178C83.5192 91.97 83.6406 91.762 83.7619 91.554C84.1086 91.7447 84.4552 91.944 84.8019 92.152C85.1659 92.36 85.5212 92.568 85.8679 92.776V90.28H87.4279C87.4106 90.696 87.4019 91.112 87.4019 91.528C87.4019 91.944 87.3932 92.36 87.3759 92.776C87.7399 92.568 88.1039 92.3687 88.4679 92.178C88.8319 91.97 89.1872 91.7707 89.5339 91.58C89.6552 91.788 89.7679 91.996 89.8719 92.204C89.9932 92.3947 90.1146 92.594 90.2359 92.802C89.8892 93.01 89.5339 93.218 89.1699 93.426C88.8232 93.634 88.4679 93.842 88.1039 94.05C88.4506 94.258 88.7972 94.466 89.1439 94.674C89.4906 94.8647 89.8459 95.064 90.2099 95.272C90.0886 95.48 89.9586 95.6967 89.8199 95.922C89.6986 96.1473 89.5686 96.3727 89.4299 96.598C89.0832 96.39 88.7366 96.182 88.3899 95.974C88.0432 95.766 87.6966 95.558 87.3499 95.35C87.3499 95.7487 87.3412 96.1473 87.3239 96.546C87.3239 96.9273 87.3239 97.3173 87.3239 97.716H85.8679V95.35ZM94.5769 95.35C94.2476 95.5407 93.9096 95.74 93.5629 95.948C93.2162 96.1387 92.8696 96.3293 92.5229 96.52C92.4016 96.2947 92.2716 96.0693 92.1329 95.844C92.0116 95.6187 91.8816 95.402 91.7429 95.194C92.1069 95.0033 92.4536 94.8127 92.7829 94.622C93.1296 94.414 93.4762 94.2147 93.8229 94.024C93.4936 93.816 93.1556 93.608 92.8089 93.4C92.4622 93.192 92.1156 92.984 91.7689 92.776C91.8902 92.568 92.0029 92.3687 92.1069 92.178C92.2282 91.97 92.3496 91.762 92.4709 91.554C92.8176 91.7447 93.1642 91.944 93.5109 92.152C93.8749 92.36 94.2302 92.568 94.5769 92.776V90.28H96.1369C96.1196 90.696 96.1109 91.112 96.1109 91.528C96.1109 91.944 96.1022 92.36 96.0849 92.776C96.4489 92.568 96.8129 92.3687 97.1769 92.178C97.5409 91.97 97.8962 91.7707 98.2429 91.58C98.3642 91.788 98.4769 91.996 98.5809 92.204C98.7022 92.3947 98.8236 92.594 98.9449 92.802C98.5982 93.01 98.2429 93.218 97.8789 93.426C97.5322 93.634 97.1769 93.842 96.8129 94.05C97.1596 94.258 97.5062 94.466 97.8529 94.674C98.1996 94.8647 98.5549 95.064 98.9189 95.272C98.7976 95.48 98.6676 95.6967 98.5289 95.922C98.4076 96.1473 98.2776 96.3727 98.1389 96.598C97.7922 96.39 97.4456 96.182 97.0989 95.974C96.7522 95.766 96.4056 95.558 96.0589 95.35C96.0589 95.7487 96.0502 96.1473 96.0329 96.546C96.0329 96.9273 96.0329 97.3173 96.0329 97.716H94.5769V95.35ZM103.286 95.35C102.957 95.5407 102.619 95.74 102.272 95.948C101.925 96.1387 101.579 96.3293 101.232 96.52C101.111 96.2947 100.981 96.0693 100.842 95.844C100.721 95.6187 100.591 95.402 100.452 95.194C100.816 95.0033 101.163 94.8127 101.492 94.622C101.839 94.414 102.185 94.2147 102.532 94.024C102.203 93.816 101.865 93.608 101.518 93.4C101.171 93.192 100.825 92.984 100.478 92.776C100.599 92.568 100.712 92.3687 100.816 92.178C100.937 91.97 101.059 91.762 101.18 91.554C101.527 91.7447 101.873 91.944 102.22 92.152C102.584 92.36 102.939 92.568 103.286 92.776V90.28H104.846C104.829 90.696 104.82 91.112 104.82 91.528C104.82 91.944 104.811 92.36 104.794 92.776C105.158 92.568 105.522 92.3687 105.886 92.178C106.25 91.97 106.605 91.7707 106.952 91.58C107.073 91.788 107.186 91.996 107.29 92.204C107.411 92.3947 107.533 92.594 107.654 92.802C107.307 93.01 106.952 93.218 106.588 93.426C106.241 93.634 105.886 93.842 105.522 94.05C105.869 94.258 106.215 94.466 106.562 94.674C106.909 94.8647 107.264 95.064 107.628 95.272C107.507 95.48 107.377 95.6967 107.238 95.922C107.117 96.1473 106.987 96.3727 106.848 96.598C106.501 96.39 106.155 96.182 105.808 95.974C105.461 95.766 105.115 95.558 104.768 95.35C104.768 95.7487 104.759 96.1473 104.742 96.546C104.742 96.9273 104.742 97.3173 104.742 97.716H103.286V95.35ZM111.995 95.35C111.666 95.5407 111.328 95.74 110.981 95.948C110.634 96.1387 110.288 96.3293 109.941 96.52C109.82 96.2947 109.69 96.0693 109.551 95.844C109.43 95.6187 109.3 95.402 109.161 95.194C109.525 95.0033 109.872 94.8127 110.201 94.622C110.548 94.414 110.894 94.2147 111.241 94.024C110.912 93.816 110.574 93.608 110.227 93.4C109.88 93.192 109.534 92.984 109.187 92.776C109.308 92.568 109.421 92.3687 109.525 92.178C109.646 91.97 109.768 91.762 109.889 91.554C110.236 91.7447 110.582 91.944 110.929 92.152C111.293 92.36 111.648 92.568 111.995 92.776V90.28H113.555C113.538 90.696 113.529 91.112 113.529 91.528C113.529 91.944 113.52 92.36 113.503 92.776C113.867 92.568 114.231 92.3687 114.595 92.178C114.959 91.97 115.314 91.7707 115.661 91.58C115.782 91.788 115.895 91.996 115.999 92.204C116.12 92.3947 116.242 92.594 116.363 92.802C116.016 93.01 115.661 93.218 115.297 93.426C114.95 93.634 114.595 93.842 114.231 94.05C114.578 94.258 114.924 94.466 115.271 94.674C115.618 94.8647 115.973 95.064 116.337 95.272C116.216 95.48 116.086 95.6967 115.947 95.922C115.826 96.1473 115.696 96.3727 115.557 96.598C115.21 96.39 114.864 96.182 114.517 95.974C114.17 95.766 113.824 95.558 113.477 95.35C113.477 95.7487 113.468 96.1473 113.451 96.546C113.451 96.9273 113.451 97.3173 113.451 97.716H111.995V95.35ZM120.704 95.35C120.375 95.5407 120.037 95.74 119.69 95.948C119.343 96.1387 118.997 96.3293 118.65 96.52C118.529 96.2947 118.399 96.0693 118.26 95.844C118.139 95.6187 118.009 95.402 117.87 95.194C118.234 95.0033 118.581 94.8127 118.91 94.622C119.257 94.414 119.603 94.2147 119.95 94.024C119.621 93.816 119.283 93.608 118.936 93.4C118.589 93.192 118.243 92.984 117.896 92.776C118.017 92.568 118.13 92.3687 118.234 92.178C118.355 91.97 118.477 91.762 118.598 91.554C118.945 91.7447 119.291 91.944 119.638 92.152C120.002 92.36 120.357 92.568 120.704 92.776V90.28H122.264C122.247 90.696 122.238 91.112 122.238 91.528C122.238 91.944 122.229 92.36 122.212 92.776C122.576 92.568 122.94 92.3687 123.304 92.178C123.668 91.97 124.023 91.7707 124.37 91.58C124.491 91.788 124.604 91.996 124.708 92.204C124.829 92.3947 124.951 92.594 125.072 92.802C124.725 93.01 124.37 93.218 124.006 93.426C123.659 93.634 123.304 93.842 122.94 94.05C123.287 94.258 123.633 94.466 123.98 94.674C124.327 94.8647 124.682 95.064 125.046 95.272C124.925 95.48 124.795 95.6967 124.656 95.922C124.535 96.1473 124.405 96.3727 124.266 96.598C123.919 96.39 123.573 96.182 123.226 95.974C122.879 95.766 122.533 95.558 122.186 95.35C122.186 95.7487 122.177 96.1473 122.16 96.546C122.16 96.9273 122.16 97.3173 122.16 97.716H120.704V95.35ZM129.413 95.35C129.083 95.5407 128.745 95.74 128.399 95.948C128.052 96.1387 127.705 96.3293 127.359 96.52C127.237 96.2947 127.107 96.0693 126.969 95.844C126.847 95.6187 126.717 95.402 126.579 95.194C126.943 95.0033 127.289 94.8127 127.619 94.622C127.965 94.414 128.312 94.2147 128.659 94.024C128.329 93.816 127.991 93.608 127.645 93.4C127.298 93.192 126.951 92.984 126.605 92.776C126.726 92.568 126.839 92.3687 126.943 92.178C127.064 91.97 127.185 91.762 127.307 91.554C127.653 91.7447 128 91.944 128.347 92.152C128.711 92.36 129.066 92.568 129.413 92.776V90.28H130.973C130.955 90.696 130.947 91.112 130.947 91.528C130.947 91.944 130.938 92.36 130.921 92.776C131.285 92.568 131.649 92.3687 132.013 92.178C132.377 91.97 132.732 91.7707 133.079 91.58C133.2 91.788 133.313 91.996 133.417 92.204C133.538 92.3947 133.659 92.594 133.781 92.802C133.434 93.01 133.079 93.218 132.715 93.426C132.368 93.634 132.013 93.842 131.649 94.05C131.995 94.258 132.342 94.466 132.689 94.674C133.035 94.8647 133.391 95.064 133.755 95.272C133.633 95.48 133.503 95.6967 133.365 95.922C133.243 96.1473 133.113 96.3727 132.975 96.598C132.628 96.39 132.281 96.182 131.935 95.974C131.588 95.766 131.241 95.558 130.895 95.35C130.895 95.7487 130.886 96.1473 130.869 96.546C130.869 96.9273 130.869 97.3173 130.869 97.716H129.413V95.35ZM138.122 95.35C137.792 95.5407 137.454 95.74 137.108 95.948C136.761 96.1387 136.414 96.3293 136.068 96.52C135.946 96.2947 135.816 96.0693 135.678 95.844C135.556 95.6187 135.426 95.402 135.288 95.194C135.652 95.0033 135.998 94.8127 136.328 94.622C136.674 94.414 137.021 94.2147 137.368 94.024C137.038 93.816 136.7 93.608 136.354 93.4C136.007 93.192 135.66 92.984 135.314 92.776C135.435 92.568 135.548 92.3687 135.652 92.178C135.773 91.97 135.894 91.762 136.016 91.554C136.362 91.7447 136.709 91.944 137.056 92.152C137.42 92.36 137.775 92.568 138.122 92.776V90.28H139.682C139.664 90.696 139.656 91.112 139.656 91.528C139.656 91.944 139.647 92.36 139.63 92.776C139.994 92.568 140.358 92.3687 140.722 92.178C141.086 91.97 141.441 91.7707 141.788 91.58C141.909 91.788 142.022 91.996 142.126 92.204C142.247 92.3947 142.368 92.594 142.49 92.802C142.143 93.01 141.788 93.218 141.424 93.426C141.077 93.634 140.722 93.842 140.358 94.05C140.704 94.258 141.051 94.466 141.398 94.674C141.744 94.8647 142.1 95.064 142.464 95.272C142.342 95.48 142.212 95.6967 142.074 95.922C141.952 96.1473 141.822 96.3727 141.684 96.598C141.337 96.39 140.99 96.182 140.644 95.974C140.297 95.766 139.95 95.558 139.604 95.35C139.604 95.7487 139.595 96.1473 139.578 96.546C139.578 96.9273 139.578 97.3173 139.578 97.716H138.122V95.35ZM155.057 95.35C154.728 95.5407 154.39 95.74 154.043 95.948C153.697 96.1387 153.35 96.3293 153.003 96.52C152.882 96.2947 152.752 96.0693 152.613 95.844C152.492 95.6187 152.362 95.402 152.223 95.194C152.587 95.0033 152.934 94.8127 153.263 94.622C153.61 94.414 153.957 94.2147 154.303 94.024C153.974 93.816 153.636 93.608 153.289 93.4C152.943 93.192 152.596 92.984 152.249 92.776C152.371 92.568 152.483 92.3687 152.587 92.178C152.709 91.97 152.83 91.762 152.951 91.554C153.298 91.7447 153.645 91.944 153.991 92.152C154.355 92.36 154.711 92.568 155.057 92.776V90.28H156.617C156.6 90.696 156.591 91.112 156.591 91.528C156.591 91.944 156.583 92.36 156.565 92.776C156.929 92.568 157.293 92.3687 157.657 92.178C158.021 91.97 158.377 91.7707 158.723 91.58C158.845 91.788 158.957 91.996 159.061 92.204C159.183 92.3947 159.304 92.594 159.425 92.802C159.079 93.01 158.723 93.218 158.359 93.426C158.013 93.634 157.657 93.842 157.293 94.05C157.64 94.258 157.987 94.466 158.333 94.674C158.68 94.8647 159.035 95.064 159.399 95.272C159.278 95.48 159.148 95.6967 159.009 95.922C158.888 96.1473 158.758 96.3727 158.619 96.598C158.273 96.39 157.926 96.182 157.579 95.974C157.233 95.766 156.886 95.558 156.539 95.35C156.539 95.7487 156.531 96.1473 156.513 96.546C156.513 96.9273 156.513 97.3173 156.513 97.716H155.057V95.35ZM163.766 95.35C163.437 95.5407 163.099 95.74 162.752 95.948C162.406 96.1387 162.059 96.3293 161.712 96.52C161.591 96.2947 161.461 96.0693 161.322 95.844C161.201 95.6187 161.071 95.402 160.932 95.194C161.296 95.0033 161.643 94.8127 161.972 94.622C162.319 94.414 162.666 94.2147 163.012 94.024C162.683 93.816 162.345 93.608 161.998 93.4C161.652 93.192 161.305 92.984 160.958 92.776C161.08 92.568 161.192 92.3687 161.296 92.178C161.418 91.97 161.539 91.762 161.66 91.554C162.007 91.7447 162.354 91.944 162.7 92.152C163.064 92.36 163.42 92.568 163.766 92.776V90.28H165.326C165.309 90.696 165.3 91.112 165.3 91.528C165.3 91.944 165.292 92.36 165.274 92.776C165.638 92.568 166.002 92.3687 166.366 92.178C166.73 91.97 167.086 91.7707 167.432 91.58C167.554 91.788 167.666 91.996 167.77 92.204C167.892 92.3947 168.013 92.594 168.134 92.802C167.788 93.01 167.432 93.218 167.068 93.426C166.722 93.634 166.366 93.842 166.002 94.05C166.349 94.258 166.696 94.466 167.042 94.674C167.389 94.8647 167.744 95.064 168.108 95.272C167.987 95.48 167.857 95.6967 167.718 95.922C167.597 96.1473 167.467 96.3727 167.328 96.598C166.982 96.39 166.635 96.182 166.288 95.974C165.942 95.766 165.595 95.558 165.248 95.35C165.248 95.7487 165.24 96.1473 165.222 96.546C165.222 96.9273 165.222 97.3173 165.222 97.716H163.766V95.35ZM172.475 95.35C172.146 95.5407 171.808 95.74 171.461 95.948C171.115 96.1387 170.768 96.3293 170.421 96.52C170.3 96.2947 170.17 96.0693 170.031 95.844C169.91 95.6187 169.78 95.402 169.641 95.194C170.005 95.0033 170.352 94.8127 170.681 94.622C171.028 94.414 171.375 94.2147 171.721 94.024C171.392 93.816 171.054 93.608 170.707 93.4C170.361 93.192 170.014 92.984 169.667 92.776C169.789 92.568 169.901 92.3687 170.005 92.178C170.127 91.97 170.248 91.762 170.369 91.554C170.716 91.7447 171.063 91.944 171.409 92.152C171.773 92.36 172.129 92.568 172.475 92.776V90.28H174.035C174.018 90.696 174.009 91.112 174.009 91.528C174.009 91.944 174.001 92.36 173.983 92.776C174.347 92.568 174.711 92.3687 175.075 92.178C175.439 91.97 175.795 91.7707 176.141 91.58C176.263 91.788 176.375 91.996 176.479 92.204C176.601 92.3947 176.722 92.594 176.843 92.802C176.497 93.01 176.141 93.218 175.777 93.426C175.431 93.634 175.075 93.842 174.711 94.05C175.058 94.258 175.405 94.466 175.751 94.674C176.098 94.8647 176.453 95.064 176.817 95.272C176.696 95.48 176.566 95.6967 176.427 95.922C176.306 96.1473 176.176 96.3727 176.037 96.598C175.691 96.39 175.344 96.182 174.997 95.974C174.651 95.766 174.304 95.558 173.957 95.35C173.957 95.7487 173.949 96.1473 173.931 96.546C173.931 96.9273 173.931 97.3173 173.931 97.716H172.475V95.35ZM181.184 95.35C180.855 95.5407 180.517 95.74 180.17 95.948C179.824 96.1387 179.477 96.3293 179.13 96.52C179.009 96.2947 178.879 96.0693 178.74 95.844C178.619 95.6187 178.489 95.402 178.35 95.194C178.714 95.0033 179.061 94.8127 179.39 94.622C179.737 94.414 180.084 94.2147 180.43 94.024C180.101 93.816 179.763 93.608 179.416 93.4C179.07 93.192 178.723 92.984 178.376 92.776C178.498 92.568 178.61 92.3687 178.714 92.178C178.836 91.97 178.957 91.762 179.078 91.554C179.425 91.7447 179.772 91.944 180.118 92.152C180.482 92.36 180.838 92.568 181.184 92.776V90.28H182.744C182.727 90.696 182.718 91.112 182.718 91.528C182.718 91.944 182.71 92.36 182.692 92.776C183.056 92.568 183.42 92.3687 183.784 92.178C184.148 91.97 184.504 91.7707 184.85 91.58C184.972 91.788 185.084 91.996 185.188 92.204C185.31 92.3947 185.431 92.594 185.552 92.802C185.206 93.01 184.85 93.218 184.486 93.426C184.14 93.634 183.784 93.842 183.42 94.05C183.767 94.258 184.114 94.466 184.46 94.674C184.807 94.8647 185.162 95.064 185.526 95.272C185.405 95.48 185.275 95.6967 185.136 95.922C185.015 96.1473 184.885 96.3727 184.746 96.598C184.4 96.39 184.053 96.182 183.706 95.974C183.36 95.766 183.013 95.558 182.666 95.35C182.666 95.7487 182.658 96.1473 182.64 96.546C182.64 96.9273 182.64 97.3173 182.64 97.716H181.184V95.35ZM198.12 95.35C197.791 95.5407 197.453 95.74 197.106 95.948C196.759 96.1387 196.413 96.3293 196.066 96.52C195.945 96.2947 195.815 96.0693 195.676 95.844C195.555 95.6187 195.425 95.402 195.286 95.194C195.65 95.0033 195.997 94.8127 196.326 94.622C196.673 94.414 197.019 94.2147 197.366 94.024C197.037 93.816 196.699 93.608 196.352 93.4C196.005 93.192 195.659 92.984 195.312 92.776C195.433 92.568 195.546 92.3687 195.65 92.178C195.771 91.97 195.893 91.762 196.014 91.554C196.361 91.7447 196.707 91.944 197.054 92.152C197.418 92.36 197.773 92.568 198.12 92.776V90.28H199.68C199.663 90.696 199.654 91.112 199.654 91.528C199.654 91.944 199.645 92.36 199.628 92.776C199.992 92.568 200.356 92.3687 200.72 92.178C201.084 91.97 201.439 91.7707 201.786 91.58C201.907 91.788 202.02 91.996 202.124 92.204C202.245 92.3947 202.367 92.594 202.488 92.802C202.141 93.01 201.786 93.218 201.422 93.426C201.075 93.634 200.72 93.842 200.356 94.05C200.703 94.258 201.049 94.466 201.396 94.674C201.743 94.8647 202.098 95.064 202.462 95.272C202.341 95.48 202.211 95.6967 202.072 95.922C201.951 96.1473 201.821 96.3727 201.682 96.598C201.335 96.39 200.989 96.182 200.642 95.974C200.295 95.766 199.949 95.558 199.602 95.35C199.602 95.7487 199.593 96.1473 199.576 96.546C199.576 96.9273 199.576 97.3173 199.576 97.716H198.12V95.35ZM206.829 95.35C206.5 95.5407 206.162 95.74 205.815 95.948C205.468 96.1387 205.122 96.3293 204.775 96.52C204.654 96.2947 204.524 96.0693 204.385 95.844C204.264 95.6187 204.134 95.402 203.995 95.194C204.359 95.0033 204.706 94.8127 205.035 94.622C205.382 94.414 205.728 94.2147 206.075 94.024C205.746 93.816 205.408 93.608 205.061 93.4C204.714 93.192 204.368 92.984 204.021 92.776C204.142 92.568 204.255 92.3687 204.359 92.178C204.48 91.97 204.602 91.762 204.723 91.554C205.07 91.7447 205.416 91.944 205.763 92.152C206.127 92.36 206.482 92.568 206.829 92.776V90.28H208.389C208.372 90.696 208.363 91.112 208.363 91.528C208.363 91.944 208.354 92.36 208.337 92.776C208.701 92.568 209.065 92.3687 209.429 92.178C209.793 91.97 210.148 91.7707 210.495 91.58C210.616 91.788 210.729 91.996 210.833 92.204C210.954 92.3947 211.076 92.594 211.197 92.802C210.85 93.01 210.495 93.218 210.131 93.426C209.784 93.634 209.429 93.842 209.065 94.05C209.412 94.258 209.758 94.466 210.105 94.674C210.452 94.8647 210.807 95.064 211.171 95.272C211.05 95.48 210.92 95.6967 210.781 95.922C210.66 96.1473 210.53 96.3727 210.391 96.598C210.044 96.39 209.698 96.182 209.351 95.974C209.004 95.766 208.658 95.558 208.311 95.35C208.311 95.7487 208.302 96.1473 208.285 96.546C208.285 96.9273 208.285 97.3173 208.285 97.716H206.829V95.35ZM215.538 95.35C215.208 95.5407 214.87 95.74 214.524 95.948C214.177 96.1387 213.83 96.3293 213.484 96.52C213.362 96.2947 213.232 96.0693 213.094 95.844C212.972 95.6187 212.842 95.402 212.704 95.194C213.068 95.0033 213.414 94.8127 213.744 94.622C214.09 94.414 214.437 94.2147 214.784 94.024C214.454 93.816 214.116 93.608 213.77 93.4C213.423 93.192 213.076 92.984 212.73 92.776C212.851 92.568 212.964 92.3687 213.068 92.178C213.189 91.97 213.31 91.762 213.432 91.554C213.778 91.7447 214.125 91.944 214.472 92.152C214.836 92.36 215.191 92.568 215.538 92.776V90.28H217.098C217.08 90.696 217.072 91.112 217.072 91.528C217.072 91.944 217.063 92.36 217.046 92.776C217.41 92.568 217.774 92.3687 218.138 92.178C218.502 91.97 218.857 91.7707 219.204 91.58C219.325 91.788 219.438 91.996 219.542 92.204C219.663 92.3947 219.784 92.594 219.906 92.802C219.559 93.01 219.204 93.218 218.84 93.426C218.493 93.634 218.138 93.842 217.774 94.05C218.12 94.258 218.467 94.466 218.814 94.674C219.16 94.8647 219.516 95.064 219.88 95.272C219.758 95.48 219.628 95.6967 219.49 95.922C219.368 96.1473 219.238 96.3727 219.1 96.598C218.753 96.39 218.406 96.182 218.06 95.974C217.713 95.766 217.366 95.558 217.02 95.35C217.02 95.7487 217.011 96.1473 216.994 96.546C216.994 96.9273 216.994 97.3173 216.994 97.716H215.538V95.35ZM224.247 95.35C223.917 95.5407 223.579 95.74 223.233 95.948C222.886 96.1387 222.539 96.3293 222.193 96.52C222.071 96.2947 221.941 96.0693 221.803 95.844C221.681 95.6187 221.551 95.402 221.413 95.194C221.777 95.0033 222.123 94.8127 222.453 94.622C222.799 94.414 223.146 94.2147 223.493 94.024C223.163 93.816 222.825 93.608 222.479 93.4C222.132 93.192 221.785 92.984 221.439 92.776C221.56 92.568 221.673 92.3687 221.777 92.178C221.898 91.97 222.019 91.762 222.141 91.554C222.487 91.7447 222.834 91.944 223.181 92.152C223.545 92.36 223.9 92.568 224.247 92.776V90.28H225.807C225.789 90.696 225.781 91.112 225.781 91.528C225.781 91.944 225.772 92.36 225.755 92.776C226.119 92.568 226.483 92.3687 226.847 92.178C227.211 91.97 227.566 91.7707 227.913 91.58C228.034 91.788 228.147 91.996 228.251 92.204C228.372 92.3947 228.493 92.594 228.615 92.802C228.268 93.01 227.913 93.218 227.549 93.426C227.202 93.634 226.847 93.842 226.483 94.05C226.829 94.258 227.176 94.466 227.523 94.674C227.869 94.8647 228.225 95.064 228.589 95.272C228.467 95.48 228.337 95.6967 228.199 95.922C228.077 96.1473 227.947 96.3727 227.809 96.598C227.462 96.39 227.115 96.182 226.769 95.974C226.422 95.766 226.075 95.558 225.729 95.35C225.729 95.7487 225.72 96.1473 225.703 96.546C225.703 96.9273 225.703 97.3173 225.703 97.716H224.247V95.35Z" fill="black"/>
<path d="M30.832 142L39.048 122.422H39.204L47.394 142H44.508L38.372 126.374L40.166 125.204L33.302 142H30.832ZM35.642 134.876H42.636L43.468 137.06H34.914L35.642 134.876ZM54.8085 142.26C53.8031 142.26 52.8845 142.043 52.0525 141.61C51.2378 141.177 50.5878 140.544 50.1025 139.712C49.6345 138.863 49.4005 137.831 49.4005 136.618C49.4005 135.422 49.6518 134.391 50.1545 133.524C50.6571 132.64 51.3245 131.964 52.1565 131.496C53.0058 131.028 53.9331 130.794 54.9385 130.794C55.9438 130.794 56.7931 131.028 57.4865 131.496C58.1798 131.947 58.7085 132.484 59.0725 133.108L58.9165 133.524L59.1505 131.236H61.3865V142H58.9685V139.192L59.2285 139.816C59.1591 139.989 59.0031 140.215 58.7605 140.492C58.5351 140.752 58.2231 141.021 57.8245 141.298C57.4431 141.575 57.0011 141.809 56.4985 142C55.9958 142.173 55.4325 142.26 54.8085 142.26ZM55.4585 140.258C56.0651 140.258 56.6111 140.145 57.0965 139.92C57.5818 139.695 57.9805 139.383 58.2925 138.984C58.6218 138.568 58.8471 138.074 58.9685 137.502V135.396C58.8298 134.876 58.5871 134.425 58.2405 134.044C57.8938 133.645 57.4778 133.342 56.9925 133.134C56.5071 132.909 55.9698 132.796 55.3805 132.796C54.7391 132.796 54.1498 132.952 53.6125 133.264C53.0751 133.576 52.6418 134.009 52.3125 134.564C52.0005 135.119 51.8445 135.769 51.8445 136.514C51.8445 137.207 52.0091 137.84 52.3385 138.412C52.6678 138.984 53.1098 139.435 53.6645 139.764C54.2191 140.093 54.8171 140.258 55.4585 140.258ZM70.0428 142.26C69.0375 142.26 68.1188 142.043 67.2868 141.61C66.4722 141.177 65.8222 140.544 65.3368 139.712C64.8688 138.863 64.6348 137.831 64.6348 136.618C64.6348 135.422 64.8862 134.391 65.3888 133.524C65.8915 132.64 66.5588 131.964 67.3908 131.496C68.2402 131.028 69.1675 130.794 70.1728 130.794C71.1782 130.794 72.0275 131.028 72.7208 131.496C73.4142 131.947 73.9428 132.484 74.3068 133.108L74.1508 133.524L74.3848 131.236H76.6208V142H74.2028V139.192L74.4628 139.816C74.3935 139.989 74.2375 140.215 73.9948 140.492C73.7695 140.752 73.4575 141.021 73.0588 141.298C72.6775 141.575 72.2355 141.809 71.7328 142C71.2302 142.173 70.6668 142.26 70.0428 142.26ZM70.6928 140.258C71.2995 140.258 71.8455 140.145 72.3308 139.92C72.8162 139.695 73.2148 139.383 73.5268 138.984C73.8562 138.568 74.0815 138.074 74.2028 137.502V135.396C74.0642 134.876 73.8215 134.425 73.4748 134.044C73.1282 133.645 72.7122 133.342 72.2268 133.134C71.7415 132.909 71.2042 132.796 70.6148 132.796C69.9735 132.796 69.3842 132.952 68.8468 133.264C68.3095 133.576 67.8762 134.009 67.5468 134.564C67.2348 135.119 67.0788 135.769 67.0788 136.514C67.0788 137.207 67.2435 137.84 67.5728 138.412C67.9022 138.984 68.3442 139.435 68.8988 139.764C69.4535 140.093 70.0515 140.258 70.6928 140.258ZM85.2772 142.26C84.2719 142.26 83.3532 142.043 82.5212 141.61C81.7066 141.177 81.0566 140.544 80.5712 139.712C80.1032 138.863 79.8692 137.831 79.8692 136.618C79.8692 135.422 80.1206 134.391 80.6232 133.524C81.1259 132.64 81.7932 131.964 82.6252 131.496C83.4746 131.028 84.4019 130.794 85.4072 130.794C86.4126 130.794 87.2619 131.028 87.9552 131.496C88.6486 131.947 89.1772 132.484 89.5412 133.108L89.3852 133.524L89.6192 131.236H91.8552V142H89.4372V139.192L89.6972 139.816C89.6279 139.989 89.4719 140.215 89.2292 140.492C89.0039 140.752 88.6919 141.021 88.2932 141.298C87.9119 141.575 87.4699 141.809 86.9672 142C86.4646 142.173 85.9012 142.26 85.2772 142.26ZM85.9272 140.258C86.5339 140.258 87.0799 140.145 87.5652 139.92C88.0506 139.695 88.4492 139.383 88.7612 138.984C89.0906 138.568 89.3159 138.074 89.4372 137.502V135.396C89.2986 134.876 89.0559 134.425 88.7092 134.044C88.3626 133.645 87.9466 133.342 87.4612 133.134C86.9759 132.909 86.4386 132.796 85.8492 132.796C85.2079 132.796 84.6186 132.952 84.0812 133.264C83.5439 133.576 83.1106 134.009 82.7812 134.564C82.4692 135.119 82.3132 135.769 82.3132 136.514C82.3132 137.207 82.4779 137.84 82.8072 138.412C83.1366 138.984 83.5786 139.435 84.1332 139.764C84.6879 140.093 85.2859 140.258 85.9272 140.258ZM100.512 142.26C99.5063 142.26 98.5876 142.043 97.7556 141.61C96.9409 141.177 96.2909 140.544 95.8056 139.712C95.3376 138.863 95.1036 137.831 95.1036 136.618C95.1036 135.422 95.3549 134.391 95.8576 133.524C96.3603 132.64 97.0276 131.964 97.8596 131.496C98.7089 131.028 99.6363 130.794 100.642 130.794C101.647 130.794 102.496 131.028 103.19 131.496C103.883 131.947 104.412 132.484 104.776 133.108L104.62 133.524L104.854 131.236H107.09V142H104.672V139.192L104.932 139.816C104.862 139.989 104.706 140.215 104.464 140.492C104.238 140.752 103.926 141.021 103.528 141.298C103.146 141.575 102.704 141.809 102.202 142C101.699 142.173 101.136 142.26 100.512 142.26ZM101.162 140.258C101.768 140.258 102.314 140.145 102.8 139.92C103.285 139.695 103.684 139.383 103.996 138.984C104.325 138.568 104.55 138.074 104.672 137.502V135.396C104.533 134.876 104.29 134.425 103.944 134.044C103.597 133.645 103.181 133.342 102.696 133.134C102.21 132.909 101.673 132.796 101.084 132.796C100.442 132.796 99.8529 132.952 99.3156 133.264C98.7783 133.576 98.3449 134.009 98.0156 134.564C97.7036 135.119 97.5476 135.769 97.5476 136.514C97.5476 137.207 97.7123 137.84 98.0416 138.412C98.3709 138.984 98.8129 139.435 99.3676 139.764C99.9223 140.093 100.52 140.258 101.162 140.258ZM123.973 142.26C122.967 142.26 122.049 142.043 121.217 141.61C120.402 141.177 119.752 140.544 119.267 139.712C118.799 138.863 118.565 137.831 118.565 136.618C118.565 135.422 118.816 134.391 119.319 133.524C119.821 132.64 120.489 131.964 121.321 131.496C122.17 131.028 123.097 130.794 124.103 130.794C125.108 130.794 125.957 131.028 126.651 131.496C127.344 131.947 127.873 132.484 128.237 133.108L128.081 133.524L128.315 131.236H130.551V142H128.133V139.192L128.393 139.816C128.323 139.989 128.167 140.215 127.925 140.492C127.699 140.752 127.387 141.021 126.989 141.298C126.607 141.575 126.165 141.809 125.663 142C125.16 142.173 124.597 142.26 123.973 142.26ZM124.623 140.258C125.229 140.258 125.775 140.145 126.261 139.92C126.746 139.695 127.145 139.383 127.457 138.984C127.786 138.568 128.011 138.074 128.133 137.502V135.396C127.994 134.876 127.751 134.425 127.405 134.044C127.058 133.645 126.642 133.342 126.157 133.134C125.671 132.909 125.134 132.796 124.545 132.796C123.903 132.796 123.314 132.952 122.777 133.264C122.239 133.576 121.806 134.009 121.477 134.564C121.165 135.119 121.009 135.769 121.009 136.514C121.009 137.207 121.173 137.84 121.503 138.412C121.832 138.984 122.274 139.435 122.829 139.764C123.383 140.093 123.981 140.258 124.623 140.258ZM139.207 142.26C138.202 142.26 137.283 142.043 136.451 141.61C135.636 141.177 134.986 140.544 134.501 139.712C134.033 138.863 133.799 137.831 133.799 136.618C133.799 135.422 134.05 134.391 134.553 133.524C135.056 132.64 135.723 131.964 136.555 131.496C137.404 131.028 138.332 130.794 139.337 130.794C140.342 130.794 141.192 131.028 141.885 131.496C142.578 131.947 143.107 132.484 143.471 133.108L143.315 133.524L143.549 131.236H145.785V142H143.367V139.192L143.627 139.816C143.558 139.989 143.402 140.215 143.159 140.492C142.934 140.752 142.622 141.021 142.223 141.298C141.842 141.575 141.4 141.809 140.897 142C140.394 142.173 139.831 142.26 139.207 142.26ZM139.857 140.258C140.464 140.258 141.01 140.145 141.495 139.92C141.98 139.695 142.379 139.383 142.691 138.984C143.02 138.568 143.246 138.074 143.367 137.502V135.396C143.228 134.876 142.986 134.425 142.639 134.044C142.292 133.645 141.876 133.342 141.391 133.134C140.906 132.909 140.368 132.796 139.779 132.796C139.138 132.796 138.548 132.952 138.011 133.264C137.474 133.576 137.04 134.009 136.711 134.564C136.399 135.119 136.243 135.769 136.243 136.514C136.243 137.207 136.408 137.84 136.737 138.412C137.066 138.984 137.508 139.435 138.063 139.764C138.618 140.093 139.216 140.258 139.857 140.258ZM154.441 142.26C153.436 142.26 152.517 142.043 151.685 141.61C150.871 141.177 150.221 140.544 149.735 139.712C149.267 138.863 149.033 137.831 149.033 136.618C149.033 135.422 149.285 134.391 149.787 133.524C150.29 132.64 150.957 131.964 151.789 131.496C152.639 131.028 153.566 130.794 154.571 130.794C155.577 130.794 156.426 131.028 157.119 131.496C157.813 131.947 158.341 132.484 158.705 133.108L158.549 133.524L158.783 131.236H161.019V142H158.601V139.192L158.861 139.816C158.792 139.989 158.636 140.215 158.393 140.492C158.168 140.752 157.856 141.021 157.457 141.298C157.076 141.575 156.634 141.809 156.131 142C155.629 142.173 155.065 142.26 154.441 142.26ZM155.091 140.258C155.698 140.258 156.244 140.145 156.729 139.92C157.215 139.695 157.613 139.383 157.925 138.984C158.255 138.568 158.48 138.074 158.601 137.502V135.396C158.463 134.876 158.22 134.425 157.873 134.044C157.527 133.645 157.111 133.342 156.625 133.134C156.14 132.909 155.603 132.796 155.013 132.796C154.372 132.796 153.783 132.952 153.245 133.264C152.708 133.576 152.275 134.009 151.945 134.564C151.633 135.119 151.477 135.769 151.477 136.514C151.477 137.207 151.642 137.84 151.971 138.412C152.301 138.984 152.743 139.435 153.297 139.764C153.852 140.093 154.45 140.258 155.091 140.258ZM169.676 142.26C168.67 142.26 167.752 142.043 166.92 141.61C166.105 141.177 165.455 140.544 164.97 139.712C164.502 138.863 164.268 137.831 164.268 136.618C164.268 135.422 164.519 134.391 165.022 133.524C165.524 132.64 166.192 131.964 167.024 131.496C167.873 131.028 168.8 130.794 169.806 130.794C170.811 130.794 171.66 131.028 172.354 131.496C173.047 131.947 173.576 132.484 173.94 133.108L173.784 133.524L174.018 131.236H176.254V142H173.836V139.192L174.096 139.816C174.026 139.989 173.87 140.215 173.628 140.492C173.402 140.752 173.09 141.021 172.692 141.298C172.31 141.575 171.868 141.809 171.366 142C170.863 142.173 170.3 142.26 169.676 142.26ZM170.326 140.258C170.932 140.258 171.478 140.145 171.964 139.92C172.449 139.695 172.848 139.383 173.16 138.984C173.489 138.568 173.714 138.074 173.836 137.502V135.396C173.697 134.876 173.454 134.425 173.108 134.044C172.761 133.645 172.345 133.342 171.86 133.134C171.374 132.909 170.837 132.796 170.248 132.796C169.606 132.796 169.017 132.952 168.48 133.264C167.942 133.576 167.509 134.009 167.18 134.564C166.868 135.119 166.712 135.769 166.712 136.514C166.712 137.207 166.876 137.84 167.206 138.412C167.535 138.984 167.977 139.435 168.532 139.764C169.086 140.093 169.684 140.258 170.326 140.258ZM184.91 142.26C183.905 142.26 182.986 142.043 182.154 141.61C181.339 141.177 180.689 140.544 180.204 139.712C179.736 138.863 179.502 137.831 179.502 136.618C179.502 135.422 179.753 134.391 180.256 133.524C180.759 132.64 181.426 131.964 182.258 131.496C183.107 131.028 184.035 130.794 185.04 130.794C186.045 130.794 186.895 131.028 187.588 131.496C188.281 131.947 188.81 132.484 189.174 133.108L189.018 133.524L189.252 131.236H191.488V142H189.07V139.192L189.33 139.816C189.261 139.989 189.105 140.215 188.862 140.492C188.637 140.752 188.325 141.021 187.926 141.298C187.545 141.575 187.103 141.809 186.6 142C186.097 142.173 185.534 142.26 184.91 142.26ZM185.56 140.258C186.167 140.258 186.713 140.145 187.198 139.92C187.683 139.695 188.082 139.383 188.394 138.984C188.723 138.568 188.949 138.074 189.07 137.502V135.396C188.931 134.876 188.689 134.425 188.342 134.044C187.995 133.645 187.579 133.342 187.094 133.134C186.609 132.909 186.071 132.796 185.482 132.796C184.841 132.796 184.251 132.952 183.714 133.264C183.177 133.576 182.743 134.009 182.414 134.564C182.102 135.119 181.946 135.769 181.946 136.514C181.946 137.207 182.111 137.84 182.44 138.412C182.769 138.984 183.211 139.435 183.766 139.764C184.321 140.093 184.919 140.258 185.56 140.258ZM200.144 142.26C199.139 142.26 198.22 142.043 197.388 141.61C196.574 141.177 195.924 140.544 195.438 139.712C194.97 138.863 194.736 137.831 194.736 136.618C194.736 135.422 194.988 134.391 195.49 133.524C195.993 132.64 196.66 131.964 197.492 131.496C198.342 131.028 199.269 130.794 200.274 130.794C201.28 130.794 202.129 131.028 202.822 131.496C203.516 131.947 204.044 132.484 204.408 133.108L204.252 133.524L204.486 131.236H206.722V142H204.304V139.192L204.564 139.816C204.495 139.989 204.339 140.215 204.096 140.492C203.871 140.752 203.559 141.021 203.16 141.298C202.779 141.575 202.337 141.809 201.834 142C201.332 142.173 200.768 142.26 200.144 142.26ZM200.794 140.258C201.401 140.258 201.947 140.145 202.432 139.92C202.918 139.695 203.316 139.383 203.628 138.984C203.958 138.568 204.183 138.074 204.304 137.502V135.396C204.166 134.876 203.923 134.425 203.576 134.044C203.23 133.645 202.814 133.342 202.328 133.134C201.843 132.909 201.306 132.796 200.716 132.796C200.075 132.796 199.486 132.952 198.948 133.264C198.411 133.576 197.978 134.009 197.648 134.564C197.336 135.119 197.18 135.769 197.18 136.514C197.18 137.207 197.345 137.84 197.674 138.412C198.004 138.984 198.446 139.435 199 139.764C199.555 140.093 200.153 140.258 200.794 140.258Z" fill="black"/>
<path d="M33.614 168.35C33.2847 168.541 32.9467 168.74 32.6 168.948C32.2533 169.139 31.9067 169.329 31.56 169.52C31.4387 169.295 31.3087 169.069 31.17 168.844C31.0487 168.619 30.9187 168.402 30.78 168.194C31.144 168.003 31.4907 167.813 31.82 167.622C32.1667 167.414 32.5133 167.215 32.86 167.024C32.5307 166.816 32.1927 166.608 31.846 166.4C31.4993 166.192 31.1527 165.984 30.806 165.776C30.9273 165.568 31.04 165.369 31.144 165.178C31.2653 164.97 31.3867 164.762 31.508 164.554C31.8547 164.745 32.2013 164.944 32.548 165.152C32.912 165.36 33.2673 165.568 33.614 165.776V163.28H35.174C35.1567 163.696 35.148 164.112 35.148 164.528C35.148 164.944 35.1393 165.36 35.122 165.776C35.486 165.568 35.85 165.369 36.214 165.178C36.578 164.97 36.9333 164.771 37.28 164.58C37.4013 164.788 37.514 164.996 37.618 165.204C37.7393 165.395 37.8607 165.594 37.982 165.802C37.6353 166.01 37.28 166.218 36.916 166.426C36.5693 166.634 36.214 166.842 35.85 167.05C36.1967 167.258 36.5433 167.466 36.89 167.674C37.2367 167.865 37.592 168.064 37.956 168.272C37.8347 168.48 37.7047 168.697 37.566 168.922C37.4447 169.147 37.3147 169.373 37.176 169.598C36.8293 169.39 36.4827 169.182 36.136 168.974C35.7893 168.766 35.4427 168.558 35.096 168.35C35.096 168.749 35.0873 169.147 35.07 169.546C35.07 169.927 35.07 170.317 35.07 170.716H33.614V168.35ZM42.323 168.35C41.9937 168.541 41.6557 168.74 41.309 168.948C40.9623 169.139 40.6157 169.329 40.269 169.52C40.1477 169.295 40.0177 169.069 39.879 168.844C39.7577 168.619 39.6277 168.402 39.489 168.194C39.853 168.003 40.1997 167.813 40.529 167.622C40.8757 167.414 41.2223 167.215 41.569 167.024C41.2397 166.816 40.9017 166.608 40.555 166.4C40.2083 166.192 39.8617 165.984 39.515 165.776C39.6363 165.568 39.749 165.369 39.853 165.178C39.9743 164.97 40.0957 164.762 40.217 164.554C40.5637 164.745 40.9103 164.944 41.257 165.152C41.621 165.36 41.9763 165.568 42.323 165.776V163.28H43.883C43.8657 163.696 43.857 164.112 43.857 164.528C43.857 164.944 43.8483 165.36 43.831 165.776C44.195 165.568 44.559 165.369 44.923 165.178C45.287 164.97 45.6423 164.771 45.989 164.58C46.1103 164.788 46.223 164.996 46.327 165.204C46.4483 165.395 46.5697 165.594 46.691 165.802C46.3443 166.01 45.989 166.218 45.625 166.426C45.2783 166.634 44.923 166.842 44.559 167.05C44.9057 167.258 45.2523 167.466 45.599 167.674C45.9457 167.865 46.301 168.064 46.665 168.272C46.5437 168.48 46.4137 168.697 46.275 168.922C46.1537 169.147 46.0237 169.373 45.885 169.598C45.5383 169.39 45.1917 169.182 44.845 168.974C44.4983 168.766 44.1517 168.558 43.805 168.35C43.805 168.749 43.7963 169.147 43.779 169.546C43.779 169.927 43.779 170.317 43.779 170.716H42.323V168.35ZM51.032 168.35C50.7026 168.541 50.3646 168.74 50.018 168.948C49.6713 169.139 49.3246 169.329 48.978 169.52C48.8566 169.295 48.7266 169.069 48.588 168.844C48.4666 168.619 48.3366 168.402 48.198 168.194C48.562 168.003 48.9086 167.813 49.238 167.622C49.5846 167.414 49.9313 167.215 50.278 167.024C49.9486 166.816 49.6106 166.608 49.264 166.4C48.9173 166.192 48.5706 165.984 48.224 165.776C48.3453 165.568 48.458 165.369 48.562 165.178C48.6833 164.97 48.8046 164.762 48.926 164.554C49.2726 164.745 49.6193 164.944 49.966 165.152C50.33 165.36 50.6853 165.568 51.032 165.776V163.28H52.592C52.5746 163.696 52.566 164.112 52.566 164.528C52.566 164.944 52.5573 165.36 52.54 165.776C52.904 165.568 53.268 165.369 53.632 165.178C53.996 164.97 54.3513 164.771 54.698 164.58C54.8193 164.788 54.932 164.996 55.036 165.204C55.1573 165.395 55.2786 165.594 55.4 165.802C55.0533 166.01 54.698 166.218 54.334 166.426C53.9873 166.634 53.632 166.842 53.268 167.05C53.6146 167.258 53.9613 167.466 54.308 167.674C54.6546 167.865 55.01 168.064 55.374 168.272C55.2526 168.48 55.1226 168.697 54.984 168.922C54.8626 169.147 54.7326 169.373 54.594 169.598C54.2473 169.39 53.9006 169.182 53.554 168.974C53.2073 168.766 52.8606 168.558 52.514 168.35C52.514 168.749 52.5053 169.147 52.488 169.546C52.488 169.927 52.488 170.317 52.488 170.716H51.032V168.35Z" fill="black"/>
<path d="M143.614 170.35C143.285 170.541 142.947 170.74 142.6 170.948C142.253 171.139 141.907 171.329 141.56 171.52C141.439 171.295 141.309 171.069 141.17 170.844C141.049 170.619 140.919 170.402 140.78 170.194C141.144 170.003 141.491 169.813 141.82 169.622C142.167 169.414 142.513 169.215 142.86 169.024C142.531 168.816 142.193 168.608 141.846 168.4C141.499 168.192 141.153 167.984 140.806 167.776C140.927 167.568 141.04 167.369 141.144 167.178C141.265 166.97 141.387 166.762 141.508 166.554C141.855 166.745 142.201 166.944 142.548 167.152C142.912 167.36 143.267 167.568 143.614 167.776V165.28H145.174C145.157 165.696 145.148 166.112 145.148 166.528C145.148 166.944 145.139 167.36 145.122 167.776C145.486 167.568 145.85 167.369 146.214 167.178C146.578 166.97 146.933 166.771 147.28 166.58C147.401 166.788 147.514 166.996 147.618 167.204C147.739 167.395 147.861 167.594 147.982 167.802C147.635 168.01 147.28 168.218 146.916 168.426C146.569 168.634 146.214 168.842 145.85 169.05C146.197 169.258 146.543 169.466 146.89 169.674C147.237 169.865 147.592 170.064 147.956 170.272C147.835 170.48 147.705 170.697 147.566 170.922C147.445 171.147 147.315 171.373 147.176 171.598C146.829 171.39 146.483 171.182 146.136 170.974C145.789 170.766 145.443 170.558 145.096 170.35C145.096 170.749 145.087 171.147 145.07 171.546C145.07 171.927 145.07 172.317 145.07 172.716H143.614V170.35ZM152.323 170.35C151.994 170.541 151.656 170.74 151.309 170.948C150.962 171.139 150.616 171.329 150.269 171.52C150.148 171.295 150.018 171.069 149.879 170.844C149.758 170.619 149.628 170.402 149.489 170.194C149.853 170.003 150.2 169.813 150.529 169.622C150.876 169.414 151.222 169.215 151.569 169.024C151.24 168.816 150.902 168.608 150.555 168.4C150.208 168.192 149.862 167.984 149.515 167.776C149.636 167.568 149.749 167.369 149.853 167.178C149.974 166.97 150.096 166.762 150.217 166.554C150.564 166.745 150.91 166.944 151.257 167.152C151.621 167.36 151.976 167.568 152.323 167.776V165.28H153.883C153.866 165.696 153.857 166.112 153.857 166.528C153.857 166.944 153.848 167.36 153.831 167.776C154.195 167.568 154.559 167.369 154.923 167.178C155.287 166.97 155.642 166.771 155.989 166.58C156.11 166.788 156.223 166.996 156.327 167.204C156.448 167.395 156.57 167.594 156.691 167.802C156.344 168.01 155.989 168.218 155.625 168.426C155.278 168.634 154.923 168.842 154.559 169.05C154.906 169.258 155.252 169.466 155.599 169.674C155.946 169.865 156.301 170.064 156.665 170.272C156.544 170.48 156.414 170.697 156.275 170.922C156.154 171.147 156.024 171.373 155.885 171.598C155.538 171.39 155.192 171.182 154.845 170.974C154.498 170.766 154.152 170.558 153.805 170.35C153.805 170.749 153.796 171.147 153.779 171.546C153.779 171.927 153.779 172.317 153.779 172.716H152.323V170.35ZM167.376 164.63C166.163 167.941 164.949 171.251 163.736 174.562C162.523 177.873 161.301 181.183 160.07 184.494H157.86C159.091 181.183 160.313 177.873 161.526 174.562C162.739 171.251 163.961 167.941 165.192 164.63H167.376ZM171.01 170.35C170.681 170.541 170.343 170.74 169.996 170.948C169.65 171.139 169.303 171.329 168.956 171.52C168.835 171.295 168.705 171.069 168.566 170.844C168.445 170.619 168.315 170.402 168.176 170.194C168.54 170.003 168.887 169.813 169.216 169.622C169.563 169.414 169.91 169.215 170.256 169.024C169.927 168.816 169.589 168.608 169.242 168.4C168.896 168.192 168.549 167.984 168.202 167.776C168.324 167.568 168.436 167.369 168.54 167.178C168.662 166.97 168.783 166.762 168.904 166.554C169.251 166.745 169.598 166.944 169.944 167.152C170.308 167.36 170.664 167.568 171.01 167.776V165.28H172.57C172.553 165.696 172.544 166.112 172.544 166.528C172.544 166.944 172.536 167.36 172.518 167.776C172.882 167.568 173.246 167.369 173.61 167.178C173.974 166.97 174.33 166.771 174.676 166.58C174.798 166.788 174.91 166.996 175.014 167.204C175.136 167.395 175.257 167.594 175.378 167.802C175.032 168.01 174.676 168.218 174.312 168.426C173.966 168.634 173.61 168.842 173.246 169.05C173.593 169.258 173.94 169.466 174.286 169.674C174.633 169.865 174.988 170.064 175.352 170.272C175.231 170.48 175.101 170.697 174.962 170.922C174.841 171.147 174.711 171.373 174.572 171.598C174.226 171.39 173.879 171.182 173.532 170.974C173.186 170.766 172.839 170.558 172.492 170.35C172.492 170.749 172.484 171.147 172.466 171.546C172.466 171.927 172.466 172.317 172.466 172.716H171.01V170.35ZM179.719 170.35C179.39 170.541 179.052 170.74 178.705 170.948C178.359 171.139 178.012 171.329 177.665 171.52C177.544 171.295 177.414 171.069 177.275 170.844C177.154 170.619 177.024 170.402 176.885 170.194C177.249 170.003 177.596 169.813 177.925 169.622C178.272 169.414 178.619 169.215 178.965 169.024C178.636 168.816 178.298 168.608 177.951 168.4C177.605 168.192 177.258 167.984 176.911 167.776C177.033 167.568 177.145 167.369 177.249 167.178C177.371 166.97 177.492 166.762 177.613 166.554C177.96 166.745 178.307 166.944 178.653 167.152C179.017 167.36 179.373 167.568 179.719 167.776V165.28H181.279C181.262 165.696 181.253 166.112 181.253 166.528C181.253 166.944 181.245 167.36 181.227 167.776C181.591 167.568 181.955 167.369 182.319 167.178C182.683 166.97 183.039 166.771 183.385 166.58C183.507 166.788 183.619 166.996 183.723 167.204C183.845 167.395 183.966 167.594 184.087 167.802C183.741 168.01 183.385 168.218 183.021 168.426C182.675 168.634 182.319 168.842 181.955 169.05C182.302 169.258 182.649 169.466 182.995 169.674C183.342 169.865 183.697 170.064 184.061 170.272C183.94 170.48 183.81 170.697 183.671 170.922C183.55 171.147 183.42 171.373 183.281 171.598C182.935 171.39 182.588 171.182 182.241 170.974C181.895 170.766 181.548 170.558 181.201 170.35C181.201 170.749 181.193 171.147 181.175 171.546C181.175 171.927 181.175 172.317 181.175 172.716H179.719V170.35ZM188.428 170.35C188.099 170.541 187.761 170.74 187.414 170.948C187.068 171.139 186.721 171.329 186.374 171.52C186.253 171.295 186.123 171.069 185.984 170.844C185.863 170.619 185.733 170.402 185.594 170.194C185.958 170.003 186.305 169.813 186.634 169.622C186.981 169.414 187.328 169.215 187.674 169.024C187.345 168.816 187.007 168.608 186.66 168.4C186.314 168.192 185.967 167.984 185.62 167.776C185.742 167.568 185.854 167.369 185.958 167.178C186.08 166.97 186.201 166.762 186.322 166.554C186.669 166.745 187.016 166.944 187.362 167.152C187.726 167.36 188.082 167.568 188.428 167.776V165.28H189.988C189.971 165.696 189.962 166.112 189.962 166.528C189.962 166.944 189.954 167.36 189.936 167.776C190.3 167.568 190.664 167.369 191.028 167.178C191.392 166.97 191.748 166.771 192.094 166.58C192.216 166.788 192.328 166.996 192.432 167.204C192.554 167.395 192.675 167.594 192.796 167.802C192.45 168.01 192.094 168.218 191.73 168.426C191.384 168.634 191.028 168.842 190.664 169.05C191.011 169.258 191.358 169.466 191.704 169.674C192.051 169.865 192.406 170.064 192.77 170.272C192.649 170.48 192.519 170.697 192.38 170.922C192.259 171.147 192.129 171.373 191.99 171.598C191.644 171.39 191.297 171.182 190.95 170.974C190.604 170.766 190.257 170.558 189.91 170.35C189.91 170.749 189.902 171.147 189.884 171.546C189.884 171.927 189.884 172.317 189.884 172.716H188.428V170.35ZM197.137 170.35C196.808 170.541 196.47 170.74 196.123 170.948C195.777 171.139 195.43 171.329 195.083 171.52C194.962 171.295 194.832 171.069 194.693 170.844C194.572 170.619 194.442 170.402 194.303 170.194C194.667 170.003 195.014 169.813 195.343 169.622C195.69 169.414 196.037 169.215 196.383 169.024C196.054 168.816 195.716 168.608 195.369 168.4C195.023 168.192 194.676 167.984 194.329 167.776C194.451 167.568 194.563 167.369 194.667 167.178C194.789 166.97 194.91 166.762 195.031 166.554C195.378 166.745 195.725 166.944 196.071 167.152C196.435 167.36 196.791 167.568 197.137 167.776V165.28H198.697C198.68 165.696 198.671 166.112 198.671 166.528C198.671 166.944 198.663 167.36 198.645 167.776C199.009 167.568 199.373 167.369 199.737 167.178C200.101 166.97 200.457 166.771 200.803 166.58C200.925 166.788 201.037 166.996 201.141 167.204C201.263 167.395 201.384 167.594 201.505 167.802C201.159 168.01 200.803 168.218 200.439 168.426C200.093 168.634 199.737 168.842 199.373 169.05C199.72 169.258 200.067 169.466 200.413 169.674C200.76 169.865 201.115 170.064 201.479 170.272C201.358 170.48 201.228 170.697 201.089 170.922C200.968 171.147 200.838 171.373 200.699 171.598C200.353 171.39 200.006 171.182 199.659 170.974C199.313 170.766 198.966 170.558 198.619 170.35C198.619 170.749 198.611 171.147 198.593 171.546C198.593 171.927 198.593 172.317 198.593 172.716H197.137V170.35Z" fill="black"/>
</svg>
