<svg width="46" height="44" viewBox="0 0 46 44" fill="none" xmlns="http://www.w3.org/2000/svg">
<path d="M34.5 40.3334C32.9028 40.3334 31.5451 39.7987 30.4271 38.7292C29.309 37.6598 28.75 36.3612 28.75 34.8334C28.75 34.6195 28.766 34.3977 28.7979 34.1679C28.8299 33.9381 28.8778 33.7322 28.9417 33.5501L15.4292 26.0334C14.8861 26.4917 14.2792 26.8511 13.6083 27.1114C12.9375 27.3717 12.2347 27.5013 11.5 27.5001C9.90278 27.5001 8.54514 26.9654 7.42708 25.8959C6.30903 24.8265 5.75 23.5279 5.75 22.0001C5.75 20.4723 6.30903 19.1737 7.42708 18.1042C8.54514 17.0348 9.90278 16.5001 11.5 16.5001C12.2347 16.5001 12.9375 16.6302 13.6083 16.8906C14.2792 17.1509 14.8861 17.5096 15.4292 17.9667L28.9417 10.4501C28.8778 10.2667 28.8299 10.0608 28.7979 9.83225C28.766 9.60369 28.75 9.38186 28.75 9.16675C28.75 7.63897 29.309 6.34036 30.4271 5.27091C31.5451 4.20147 32.9028 3.66675 34.5 3.66675C36.0972 3.66675 37.4549 4.20147 38.5729 5.27091C39.691 6.34036 40.25 7.63897 40.25 9.16675C40.25 10.6945 39.691 11.9931 38.5729 13.0626C37.4549 14.132 36.0972 14.6667 34.5 14.6667C33.7653 14.6667 33.0625 14.5372 32.3917 14.2781C31.7208 14.019 31.1139 13.6596 30.5708 13.2001L17.0583 20.7167C17.1222 20.9001 17.1701 21.1066 17.2021 21.3364C17.234 21.5662 17.25 21.7874 17.25 22.0001C17.25 22.214 17.234 22.4358 17.2021 22.6656C17.1701 22.8954 17.1222 23.1013 17.0583 23.2834L30.5708 30.8001C31.1139 30.3417 31.7208 29.983 32.3917 29.7239C33.0625 29.4648 33.7653 29.3346 34.5 29.3334C36.0972 29.3334 37.4549 29.8681 38.5729 30.9376C39.691 32.007 40.25 33.3056 40.25 34.8334C40.25 36.3612 39.691 37.6598 38.5729 38.7292C37.4549 39.7987 36.0972 40.3334 34.5 40.3334ZM34.5 11.0001C35.0431 11.0001 35.4986 10.8247 35.8666 10.4739C36.2346 10.1231 36.4179 9.68741 36.4167 9.16675C36.4167 8.6473 36.2327 8.21219 35.8647 7.86141C35.4967 7.51064 35.0418 7.33464 34.5 7.33341C33.9569 7.33341 33.5021 7.50941 33.1353 7.86141C32.7686 8.21341 32.5846 8.64853 32.5833 9.16675C32.5833 9.68619 32.7673 10.1219 33.1353 10.4739C33.5033 10.8259 33.9582 11.0013 34.5 11.0001ZM11.5 23.8334C12.0431 23.8334 12.4986 23.6574 12.8666 23.3054C13.2346 22.9534 13.4179 22.5183 13.4167 22.0001C13.4167 21.4806 13.2327 21.0455 12.8647 20.6947C12.4967 20.344 12.0418 20.168 11.5 20.1667C10.9569 20.1667 10.5021 20.3427 10.1353 20.6947C9.76861 21.0467 9.58461 21.4819 9.58333 22.0001C9.58333 22.5195 9.76733 22.9552 10.1353 23.3072C10.5033 23.6592 10.9582 23.8346 11.5 23.8334ZM34.5 36.6667C35.0431 36.6667 35.4986 36.4907 35.8666 36.1387C36.2346 35.7867 36.4179 35.3516 36.4167 34.8334C36.4167 34.314 36.2327 33.8789 35.8647 33.5281C35.4967 33.1773 35.0418 33.0013 34.5 33.0001C33.9569 33.0001 33.5021 33.1761 33.1353 33.5281C32.7686 33.8801 32.5846 34.3152 32.5833 34.8334C32.5833 35.3529 32.7673 35.7886 33.1353 36.1406C33.5033 36.4926 33.9582 36.668 34.5 36.6667Z" fill="white"/>
</svg>
