<svg width="41" height="41" viewBox="0 0 41 41" fill="none" xmlns="http://www.w3.org/2000/svg">
<path d="M20.2542 30.5646L20.0833 30.7354L19.8954 30.5646C11.7808 23.2017 6.41667 18.3329 6.41667 13.3958C6.41667 9.97917 8.97917 7.41667 12.3958 7.41667C15.0267 7.41667 17.5892 9.125 18.4946 11.4483H21.6721C22.5775 9.125 25.14 7.41667 27.7708 7.41667C31.1875 7.41667 33.75 9.97917 33.75 13.3958C33.75 18.3329 28.3858 23.2017 20.2542 30.5646ZM27.7708 4C24.7983 4 21.9454 5.38375 20.0833 7.55333C18.2213 5.38375 15.3683 4 12.3958 4C7.13417 4 3 8.11708 3 13.3958C3 19.8363 8.80833 25.115 17.6063 33.0929L20.0833 35.3479L22.5604 33.0929C31.3583 25.115 37.1667 19.8363 37.1667 13.3958C37.1667 8.11708 33.0325 4 27.7708 4Z" fill="white"/>
</svg>
