<svg width="1801" height="468" viewBox="0 0 1801 468" fill="none" xmlns="http://www.w3.org/2000/svg">
<path fill-rule="evenodd" clip-rule="evenodd" d="M0 0H149.714C300.314 0 600.629 0 900.943 76.5738C1200.37 154.093 1500.69 307.24 1651.29 384.76L1801 461.333V519H1651.29C1500.69 519 1200.37 519 900.943 519C600.629 519 300.314 519 149.714 519H0V0Z" fill="url(#paint0_linear_1034_71)"/>
<path d="M1236.69 242.132C1236.69 259.511 1223.47 273.599 1207.17 273.599C1190.87 273.599 1176.48 259.754 1177.66 242.132C1178.84 224.511 1208.35 203.744 1207.17 190.213C1205.99 176.682 1236.69 224.754 1236.69 242.132Z" fill="#994E0D" fill-opacity="0.5"/>
<path d="M930.888 410.964C930.888 428.342 917.675 442.43 901.375 442.43C885.075 442.43 870.681 428.585 871.861 410.964C873.04 393.343 902.554 372.575 901.375 359.044C900.195 345.513 930.888 393.585 930.888 410.964Z" fill="#994E0D" fill-opacity="0.5"/>
<path d="M1387.7 430.616C1387.7 447.995 1374.49 462.083 1358.19 462.083C1341.89 462.083 1327.5 448.238 1328.68 430.616C1329.86 412.995 1359.37 392.228 1358.19 378.697C1357.01 365.166 1387.7 413.238 1387.7 430.616Z" fill="#994E0D" fill-opacity="0.5"/>
<path d="M694.505 101.886C694.505 119.265 681.292 133.353 664.992 133.353C648.692 133.353 634.298 119.508 635.478 101.886C636.658 84.2651 666.171 63.4976 664.992 49.9666C663.812 36.4356 694.505 84.5079 694.505 101.886Z" fill="#994E0D" fill-opacity="0.5"/>
<path d="M92.2984 387.738C92.2984 405.117 79.0847 419.205 62.7847 419.205C46.4847 419.205 32.0912 405.36 33.2709 387.738C34.4506 370.117 63.9643 349.35 62.7847 335.819C61.605 322.288 92.2984 370.36 92.2984 387.738Z" fill="#994E0D" fill-opacity="0.5"/>
<path d="M113.872 72.5049C113.872 83.9096 104.223 93.1548 92.3219 93.1548C80.4203 93.1548 69.9108 84.0689 70.7721 72.5049C71.6335 60.941 93.1832 47.3123 92.3219 38.4326C91.4606 29.5529 113.872 61.1003 113.872 72.5049Z" fill="#994E0D" fill-opacity="0.5"/>
<path d="M410.286 43.9197C410.286 55.3243 400.638 64.5696 388.736 64.5696C376.834 64.5696 366.325 55.4837 367.186 43.9197C368.048 32.3558 389.597 18.7271 388.736 9.84742C387.875 0.967709 410.286 32.5151 410.286 43.9197Z" fill="#994E0D" fill-opacity="0.5"/>
<path d="M444.055 266.348C444.055 277.753 434.407 286.998 422.505 286.998C410.604 286.998 400.094 277.912 400.956 266.348C401.817 254.785 423.367 241.156 422.505 232.276C421.644 223.396 444.055 254.944 444.055 266.348Z" fill="#994E0D" fill-opacity="0.5"/>
<path d="M1095.98 336.025C1095.98 347.429 1086.33 356.675 1074.43 356.675C1062.53 356.675 1052.02 347.589 1052.88 336.025C1053.74 324.461 1075.29 310.832 1074.43 301.952C1073.57 293.073 1095.98 324.62 1095.98 336.025Z" fill="#994E0D" fill-opacity="0.5"/>
<path d="M1576.25 363.717C1576.25 375.121 1566.6 384.367 1554.7 384.367C1542.8 384.367 1532.29 375.281 1533.15 363.717C1534.01 352.153 1555.56 338.524 1554.7 329.645C1553.84 320.765 1576.25 352.312 1576.25 363.717Z" fill="#994E0D" fill-opacity="0.5"/>
<path d="M522.848 427.14C522.848 438.545 513.2 447.79 501.298 447.79C489.397 447.79 478.887 438.704 479.749 427.14C480.61 415.576 502.16 401.948 501.298 393.068C500.437 384.188 522.848 415.736 522.848 427.14Z" fill="#994E0D" fill-opacity="0.5"/>
<defs>
<linearGradient id="paint0_linear_1034_71" x1="0" y1="259.5" x2="1801" y2="259.5" gradientUnits="userSpaceOnUse">
<stop stop-color="#E5B671"/>
<stop offset="1" stop-color="#994E0D"/>
</linearGradient>
</defs>
</svg>
