<svg width="613" height="882" viewBox="0 0 613 882" fill="none" xmlns="http://www.w3.org/2000/svg">
<g filter="url(#filter0_d_106_295)">
<path d="M4 81.1048C4 38.5788 38.4741 4.10481 81 4.10481H552.743L572.341 2.81417L603.989 1.19053C605.251 1.12578 606.554 0.742925 607.768 1.09327V1.09327C611.906 2.28723 604.632 3.74492 598.111 4.72433C592.578 5.55535 587.225 7.3935 582.511 10.407V10.407C581.01 11.3668 579.581 12.4358 578.236 13.6053L575.995 15.5543C573.564 17.6686 571.326 19.9957 569.309 22.5079V22.5079C565.824 26.8482 563.028 31.7 561.022 36.8923L557.921 44.9156C554.499 53.7701 552.743 63.1811 552.743 72.674V112.519V220.933V437.762V655.881V764.94L553.76 801.367C554.083 812.928 557.009 824.268 562.321 834.542L563.904 837.605C566.498 842.622 569.853 847.207 573.849 851.199V851.199L575.246 852.616C576.574 853.964 577.996 855.215 579.502 856.361V856.361L580.633 857.222L581.952 858.082L582.611 858.512L585.155 860.233V860.233C588.661 862.234 592.384 863.831 596.25 864.992L596.483 865.063C597.223 865.285 597.955 865.524 598.693 865.753C599.73 866.075 601.298 866.522 602.492 866.686C604.684 866.988 605.987 866.154 608.145 866.686C611.969 867.629 601.966 869.54 597.804 870.268C596.655 870.469 595.516 870.688 594.379 870.948V870.948C590.503 871.833 586.541 872.279 582.565 872.279H581.01L552.743 874L80.6377 871.779C38.2537 871.58 4 837.165 4 794.78V81.1048Z" fill="#B13D0C"/>
</g>
<defs>
<filter id="filter0_d_106_295" x="0" y="0.947266" width="613" height="881.053" filterUnits="userSpaceOnUse" color-interpolation-filters="sRGB">
<feFlood flood-opacity="0" result="BackgroundImageFix"/>
<feColorMatrix in="SourceAlpha" type="matrix" values="0 0 0 0 0 0 0 0 0 0 0 0 0 0 0 0 0 0 127 0" result="hardAlpha"/>
<feOffset dy="4"/>
<feGaussianBlur stdDeviation="2"/>
<feComposite in2="hardAlpha" operator="out"/>
<feColorMatrix type="matrix" values="0 0 0 0 0 0 0 0 0 0 0 0 0 0 0 0 0 0 0.25 0"/>
<feBlend mode="normal" in2="BackgroundImageFix" result="effect1_dropShadow_106_295"/>
<feBlend mode="normal" in="SourceGraphic" in2="effect1_dropShadow_106_295" result="shape"/>
</filter>
</defs>
</svg>
