<svg width="85" height="85" viewBox="0 0 85 85" fill="none" xmlns="http://www.w3.org/2000/svg">
<path d="M42.5 83C47.8195 83.0069 53.088 81.9624 58.0026 79.9266C62.9172 77.8909 67.381 74.904 71.1375 71.1375C74.904 67.381 77.8909 62.9172 79.9266 58.0026C81.9624 53.088 83.0069 47.8195 83 42.5C83.0067 37.1805 81.9622 31.9121 79.9265 26.9975C77.8907 22.0829 74.9039 17.6191 71.1375 13.8625C67.381 10.096 62.9172 7.1091 58.0026 5.07334C53.088 3.03759 47.8195 1.99314 42.5 2.00003C37.1805 1.99325 31.9121 3.03775 26.9975 5.0735C22.0829 7.10925 17.6191 10.0961 13.8625 13.8625C10.0961 17.6191 7.10925 22.0829 5.0735 26.9975C3.03775 31.9121 1.99325 37.1805 2.00003 42.5C1.99314 47.8195 3.03759 53.088 5.07334 58.0026C7.1091 62.9172 10.096 67.381 13.8625 71.1375C17.6191 74.9039 22.0829 77.8907 26.9975 79.9265C31.9121 81.9622 37.1805 83.0067 42.5 83Z" stroke="#496300" stroke-width="4" stroke-linejoin="round"/>
<path fill-rule="evenodd" clip-rule="evenodd" d="M42.5 68.8237C43.8427 68.8237 45.1303 68.2904 46.0797 67.341C47.0291 66.3916 47.5625 65.1039 47.5625 63.7612C47.5625 62.4186 47.0291 61.1309 46.0797 60.1815C45.1303 59.2321 43.8427 58.6987 42.5 58.6987C41.1573 58.6987 39.8697 59.2321 38.9203 60.1815C37.9709 61.1309 37.4375 62.4186 37.4375 63.7612C37.4375 65.1039 37.9709 66.3916 38.9203 67.341C39.8697 68.2904 41.1573 68.8237 42.5 68.8237Z" fill="#496300"/>
<path d="M42.5 18.1987V50.5987" stroke="#496300" stroke-width="4" stroke-linecap="round" stroke-linejoin="round"/>
</svg>
