<svg width="17" height="18" viewBox="0 0 17 18" fill="none" xmlns="http://www.w3.org/2000/svg">
<path d="M0.328384 2.40537C-0.171829 1.90185 -0.0921497 1.15396 0.509876 0.735592C1.1119 0.317221 2.00609 0.383864 2.5063 0.88739L8.5 6.90378L14.4937 0.88739C14.9939 0.383864 15.8881 0.317221 16.4901 0.735592C17.0922 1.15396 17.1718 1.90185 16.6716 2.40537L10.3459 8.75498L16.6716 15.1046C17.1718 15.6081 17.0922 16.356 16.4901 16.7744C15.8881 17.1927 14.9939 17.1261 14.4937 16.6226L8.5 10.6062L2.5063 16.6226C2.00609 17.1261 1.1119 17.1927 0.509876 16.7744C-0.0921497 16.356 -0.171829 15.6081 0.328384 15.1046L6.65408 8.75498L0.328384 2.40537Z" fill="#B13D0C"/>
</svg>
