<svg width="37" height="36" viewBox="0 0 37 36" fill="none" xmlns="http://www.w3.org/2000/svg">
<path d="M18.0391 16C16.2479 16 14.7144 15.3635 13.4388 14.0906C12.1632 12.8177 11.5254 11.2875 11.5254 9.5C11.5254 7.7125 12.1632 6.18229 13.4388 4.90938C14.7144 3.63646 16.2479 3 18.0391 3C19.8304 3 21.3638 3.63646 22.6395 4.90938C23.9151 6.18229 24.5529 7.7125 24.5529 9.5C24.5529 11.2875 23.9151 12.8177 22.6395 14.0906C21.3638 15.3635 19.8304 16 18.0391 16ZM5.01172 29V24.45C5.01172 23.5292 5.24947 22.6831 5.72497 21.9117C6.20047 21.1404 6.83122 20.5511 7.6172 20.1438C9.29991 19.3042 11.0098 18.6747 12.7468 18.2555C14.4837 17.8362 16.2479 17.6261 18.0391 17.625C19.8304 17.625 21.5945 17.8352 23.3315 18.2555C25.0685 18.6758 26.7784 19.3053 28.4611 20.1438C29.2482 20.55 29.8794 21.1393 30.3549 21.9117C30.8304 22.6842 31.0677 23.5303 31.0666 24.45V29H5.01172Z" fill="#994E0D" fill-opacity="0.7"/>
</svg>
