<svg width="34" height="34" viewBox="0 0 34 34" fill="none" xmlns="http://www.w3.org/2000/svg">
<path d="M10.4615 0.245448C9.11014 0.230159 7.76918 0.48312 6.51626 0.989682C5.26335 1.49624 4.12338 2.24634 3.16238 3.19653C2.20137 4.14673 1.43843 5.27813 0.917725 6.52524C0.397022 7.77234 0.128906 9.11035 0.128906 10.4618C0.128906 11.8132 0.397022 13.1513 0.917725 14.3984C1.43843 15.6455 2.20137 16.7769 3.16238 17.7271C4.12338 18.6772 5.26335 19.4273 6.51626 19.9339C7.76918 20.4405 9.11014 20.6934 10.4615 20.6781C13.1712 20.6781 15.7699 19.6017 17.686 17.6856C19.6021 15.7696 20.6785 13.1709 20.6785 10.4611C20.6785 7.75142 19.6021 5.15269 17.686 3.23663C15.7699 1.32057 13.1712 0.245448 10.4615 0.245448ZM7.19226 3.79845C7.63808 3.79759 8.07967 3.88478 8.4917 4.05503C8.90373 4.22528 9.27808 4.47523 9.59326 4.79053C9.90844 5.10583 10.1582 5.48027 10.3283 5.89237C10.4984 6.30446 10.5854 6.74609 10.5844 7.19191C10.5856 7.63771 10.4987 8.07936 10.3287 8.49146C10.1586 8.90356 9.9088 9.27799 9.59357 9.59322C9.27834 9.90845 8.90391 10.1583 8.49181 10.3283C8.07971 10.4984 7.63806 10.5853 7.19226 10.5841C6.74646 10.5853 6.30481 10.4984 5.89271 10.3283C5.48061 10.1583 5.10618 9.90845 4.79095 9.59322C4.47572 9.27799 4.2259 8.90356 4.05586 8.49146C3.88582 8.07936 3.7989 7.63771 3.80011 7.19191C3.79925 6.7462 3.8864 6.30471 4.05657 5.89277C4.22673 5.48083 4.47656 5.10654 4.79173 4.79137C5.10689 4.47621 5.48118 4.22638 5.89312 4.05621C6.30507 3.88605 6.74656 3.79759 7.19226 3.79845ZM21.6998 15.2002C21.341 16.0389 20.8882 16.8343 20.3503 17.5711L30.5673 27.7868C30.7821 28.0045 30.9025 28.2982 30.9025 28.6041C30.9025 28.91 30.7821 29.2036 30.5673 29.4214C30.3491 29.6356 30.0557 29.7556 29.75 29.7556C29.4443 29.7556 29.1508 29.6356 28.9326 29.4214L18.8386 19.2868C17.5638 20.4944 16.045 21.4147 14.3846 21.9858V23.7839C14.3846 24.3593 14.8697 24.8458 15.4477 24.8458H18.3076V27.707C18.3076 28.2824 18.7928 28.7688 19.3708 28.7688H22.2307V31.6301C22.2307 32.2054 22.7172 32.6919 23.2939 32.6919H26.1943L26.9306 33.4281C27.3778 33.8741 31.858 34.0977 32.9786 32.9783C34.0993 31.8563 33.8731 27.3761 33.4272 26.9302L21.6998 15.2002Z" fill="#994E0D" fill-opacity="0.7"/>
</svg>
