<svg width="45" height="50" viewBox="0 0 45 50" fill="none" xmlns="http://www.w3.org/2000/svg">
<path d="M20.625 27.0833C21.1562 27.0833 21.6019 26.8833 21.9619 26.4833C22.3219 26.0833 22.5012 25.5889 22.5 25C22.5 24.4097 22.32 23.9153 21.96 23.5167C21.6 23.1181 21.155 22.9181 20.625 22.9167C20.0938 22.9167 19.6488 23.1167 19.29 23.5167C18.9313 23.9167 18.7513 24.4111 18.75 25C18.75 25.5903 18.93 26.0854 19.29 26.4854C19.65 26.8854 20.095 27.0847 20.625 27.0833ZM13.125 43.75V39.5833L24.375 37.5V14.3229C24.375 13.8021 24.2344 13.3333 23.9531 12.9167C23.6719 12.5 23.3125 12.2569 22.875 12.1875L13.125 10.4167V6.25L23.4375 8.125C24.8125 8.40278 25.9375 9.11458 26.8125 10.2604C27.6875 11.4062 28.125 12.7431 28.125 14.2708V37.3958C28.125 38.4028 27.8281 39.2972 27.2344 40.0792C26.6406 40.8611 25.8906 41.3382 24.9844 41.5104L13.125 43.75ZM13.125 39.5833H31.875V10.4167H13.125V39.5833ZM7.5 43.75C6.96875 43.75 6.52375 43.55 6.165 43.15C5.80625 42.75 5.62625 42.2556 5.625 41.6667C5.625 41.0764 5.805 40.5819 6.165 40.1833C6.525 39.7847 6.97 39.5847 7.5 39.5833H9.375V10.4167C9.375 9.27083 9.7425 8.29028 10.4775 7.475C11.2125 6.65972 12.095 6.25139 13.125 6.25H31.875C32.9062 6.25 33.7894 6.65833 34.5244 7.475C35.2594 8.29167 35.6262 9.27222 35.625 10.4167V39.5833H37.5C38.0312 39.5833 38.4769 39.7833 38.8369 40.1833C39.1969 40.5833 39.3763 41.0778 39.375 41.6667C39.375 42.2569 39.195 42.7521 38.835 43.1521C38.475 43.5521 38.03 43.7514 37.5 43.75H7.5Z" fill="white"/>
</svg>
