<svg width="85" height="78" viewBox="0 0 85 78" fill="none" xmlns="http://www.w3.org/2000/svg">
<path d="M42.5 75.3693C47.8195 75.3755 53.088 74.43 58.0026 72.587C62.9172 70.744 67.381 68.0399 71.1375 64.6301C74.904 61.2293 77.8909 57.1881 79.9266 52.7389C81.9624 48.2896 83.0069 43.52 83 38.7042C83.0067 33.8884 81.9622 29.1188 79.9265 24.6696C77.8907 20.2204 74.9039 16.1792 71.1375 12.7783C67.381 9.3685 62.9172 6.66439 58.0026 4.8214C53.088 2.9784 47.8195 2.03285 42.5 2.03909C37.1805 2.03295 31.9121 2.97855 26.9975 4.82154C22.0829 6.66453 17.6191 9.36858 13.8625 12.7783C10.0961 16.1792 7.10925 20.2204 5.0735 24.6696C3.03775 29.1188 1.99325 33.8884 2.00003 38.7042C1.99314 43.52 3.03759 48.2896 5.07334 52.7389C7.1091 57.1881 10.096 61.2293 13.8625 64.6301C17.6191 68.0398 22.0829 70.7439 26.9975 72.5868C31.9121 74.4298 37.1805 75.3754 42.5 75.3693Z" stroke="#B13D0C" stroke-width="4" stroke-linejoin="round"/>
<path fill-rule="evenodd" clip-rule="evenodd" d="M42.5 62.5364C43.8427 62.5364 45.1303 62.0535 46.0797 61.194C47.0291 60.3345 47.5625 59.1688 47.5625 57.9533C47.5625 56.7377 47.0291 55.572 46.0797 54.7125C45.1303 53.853 43.8427 53.3701 42.5 53.3701C41.1573 53.3701 39.8697 53.853 38.9203 54.7125C37.9709 55.572 37.4375 56.7377 37.4375 57.9533C37.4375 59.1688 37.9709 60.3345 38.9203 61.194C39.8697 62.0535 41.1573 62.5364 42.5 62.5364Z" fill="#B13D0C"/>
<path d="M42.5 16.7051V46.0372" stroke="#B13D0C" stroke-width="4" stroke-linecap="round" stroke-linejoin="round"/>
</svg>
