<svg width="24" height="26" viewBox="0 0 24 26" fill="none" xmlns="http://www.w3.org/2000/svg">
<path d="M0.4636 3.41471C-0.242583 2.64525 -0.130094 1.50239 0.719825 0.863067C1.56974 0.223743 2.83213 0.325582 3.53831 1.09503L12 10.2889L20.4617 1.09503C21.1679 0.325582 22.4303 0.223743 23.2802 0.863067C24.1301 1.50239 24.2426 2.64525 23.5364 3.41471L14.606 13.1177L23.5364 22.8207C24.2426 23.5902 24.1301 24.7331 23.2802 25.3724C22.4303 26.0117 21.1679 25.9099 20.4617 25.1404L12 15.9466L3.53831 25.1404C2.83213 25.9099 1.56974 26.0117 0.719825 25.3724C-0.130094 24.7331 -0.242583 23.5902 0.4636 22.8207L9.394 13.1177L0.4636 3.41471Z" fill="#B13D0C"/>
</svg>
