<svg width="47" height="47" viewBox="0 0 47 47" fill="none" xmlns="http://www.w3.org/2000/svg">
<path d="M31.3334 16.8709V10.9959H15.6667V16.8709H13.7084V9.0376H33.2917V16.8709H31.3334ZM34.4961 23.7251C35.051 23.7251 35.5164 23.5378 35.8924 23.1631C36.2684 22.7884 36.4557 22.3229 36.4544 21.7668C36.4544 21.2119 36.2671 20.7471 35.8924 20.3724C35.5177 19.9977 35.0523 19.8097 34.4961 19.8084C33.9412 19.8084 33.4764 19.9964 33.1018 20.3724C32.7271 20.7484 32.5391 21.2132 32.5378 21.7668C32.5378 22.3216 32.7258 22.7871 33.1018 23.1631C33.4778 23.5391 33.9425 23.7264 34.4961 23.7251ZM31.3334 37.2082V28.3213H15.6667V37.2082H31.3334ZM33.2917 39.1666H13.7084V31.3332H7.005V20.7876C7.005 19.6779 7.38166 18.7477 8.13496 17.997C8.88827 17.2463 9.81717 16.8709 10.9217 16.8709H36.0784C37.1881 16.8709 38.1184 17.2463 38.869 17.997C39.6197 18.7477 39.9951 19.6779 39.9951 20.7876V31.3332H33.2917V39.1666ZM38.0368 29.3749V20.7876C38.0368 20.2327 37.8494 19.768 37.4747 19.3933C37.1 19.0186 36.6346 18.8306 36.0784 18.8293H10.9217C10.3668 18.8293 9.90138 19.0173 9.52538 19.3933C9.14938 19.7693 8.96203 20.234 8.96334 20.7876V29.3749H13.7084V26.363H33.2917V29.3749H38.0368Z" fill="white"/>
</svg>
