<svg width="557" height="78" viewBox="0 0 557 78" fill="none" xmlns="http://www.w3.org/2000/svg">
<path fill-rule="evenodd" clip-rule="evenodd" d="M597.485 59.3479L572.597 60.8228C547.71 62.2808 497.935 65.1967 448.143 56.7213C398.352 48.246 348.543 28.3793 298.718 21.3427C248.929 14.2891 199.158 20.0656 149.395 31.5292C99.6328 42.9929 49.8785 60.1438 25.0013 68.7277L0.124176 77.3116L-9.45446e-06 -8.13185L24.8896 -8.16802C49.7791 -8.2042 99.5583 -8.27655 149.337 -8.3489C199.117 -8.42125 248.896 -8.4936 298.675 -8.56595C348.49 -8.63835 398.269 -8.7107 448.048 -8.78305C497.827 -8.8554 547.606 -8.92775 572.496 -8.96392L597.385 -9.0001L597.485 59.3479Z" fill="#D39055"/>
</svg>
