<svg width="594" height="149" viewBox="0 0 594 149" fill="none" xmlns="http://www.w3.org/2000/svg">
<g filter="url(#filter0_d_641_354)">
<path fill-rule="evenodd" clip-rule="evenodd" d="M1920 168.658L1880.44 153.014L1849.16 124.9C1834.95 108.549 1771.65 -5.9298 1622.83 104.601C1581.1 168.658 1424.18 186.573 1320.66 190.857C1111.65 190.857 1153.16 151.5 1062.86 138.471C972.573 125.443 953.377 181.629 863.086 177.286C772.795 173.486 630.833 44.886 540.542 49.2289C451.455 53.5718 361.164 104.601 270.873 104.601C180.582 104.601 90.291 53.5718 44.5436 27.5145L-0.0001297 2V232.716H44.5436C90.291 232.716 180.582 232.716 270.873 232.716C361.164 232.716 451.455 232.716 540.542 232.716C630.833 232.716 721.125 232.716 811.416 232.716C901.707 232.716 991.998 232.716 1082.29 232.716C1172.58 232.716 1262.87 232.716 1353.16 232.716C1442.25 232.716 1532.54 232.716 1622.83 232.716C1713.12 232.716 1803.41 232.716 1849.16 232.716H1920V168.658Z" fill="#496300"/>
<path fill-rule="evenodd" clip-rule="evenodd" d="M1920 168.658L1880.44 153.014L1849.16 124.9C1834.95 108.549 1771.65 -5.9298 1622.83 104.601C1581.1 168.658 1424.18 186.573 1320.66 190.857C1111.65 190.857 1153.16 151.5 1062.86 138.471C972.573 125.443 953.377 181.629 863.086 177.286C772.795 173.486 630.833 44.886 540.542 49.2289C451.455 53.5718 361.164 104.601 270.873 104.601C180.582 104.601 90.291 53.5718 44.5436 27.5145L-0.0001297 2V232.716H44.5436C90.291 232.716 180.582 232.716 270.873 232.716C361.164 232.716 451.455 232.716 540.542 232.716C630.833 232.716 721.125 232.716 811.416 232.716C901.707 232.716 991.998 232.716 1082.29 232.716C1172.58 232.716 1262.87 232.716 1353.16 232.716C1442.25 232.716 1532.54 232.716 1622.83 232.716C1713.12 232.716 1803.41 232.716 1849.16 232.716H1920V168.658Z" stroke="black"/>
</g>
<defs>
<filter id="filter0_d_641_354" x="-8.00024" y="0" width="1936" height="246.716" filterUnits="userSpaceOnUse" color-interpolation-filters="sRGB">
<feFlood flood-opacity="0" result="BackgroundImageFix"/>
<feColorMatrix in="SourceAlpha" type="matrix" values="0 0 0 0 0 0 0 0 0 0 0 0 0 0 0 0 0 0 127 0" result="hardAlpha"/>
<feOffset dy="6"/>
<feGaussianBlur stdDeviation="4"/>
<feComposite in2="hardAlpha" operator="out"/>
<feColorMatrix type="matrix" values="0 0 0 0 0 0 0 0 0 0 0 0 0 0 0 0 0 0 0.43 0"/>
<feBlend mode="normal" in2="BackgroundImageFix" result="effect1_dropShadow_641_354"/>
<feBlend mode="normal" in="SourceGraphic" in2="effect1_dropShadow_641_354" result="shape"/>
</filter>
</defs>
</svg>
