<svg width="320" height="72" viewBox="0 0 320 72" fill="none" xmlns="http://www.w3.org/2000/svg">
<path fill-rule="evenodd" clip-rule="evenodd" d="M946 13.4894L926.508 18.9818L911.097 28.8522C904.093 34.5927 872.907 74.784 799.582 35.9788C779.022 13.4894 701.703 7.2 650.702 5.69576C547.722 5.69576 568.169 19.5134 523.682 24.0875C479.195 28.6616 469.737 8.93576 425.249 10.4605C380.762 11.7946 310.817 56.9435 266.33 55.4188C222.436 53.8941 177.949 35.9788 133.462 35.9788C88.9744 35.9788 44.4872 53.8941 21.947 63.0424L8.3879e-06 72V-9H21.947C44.4872 -9 88.9744 -9 133.462 -9C177.949 -9 222.436 -9 266.33 -9C310.817 -9 355.304 -9 399.791 -9C444.278 -9 488.766 -9 533.253 -9C577.74 -9 622.227 -9 666.714 -9C710.608 -9 755.095 -9 799.582 -9C844.07 -9 888.557 -9 911.097 -9H946V13.4894Z" fill="#496300"/>
</svg>
