<svg width="594" height="83" viewBox="0 0 594 83" fill="none" xmlns="http://www.w3.org/2000/svg">
<path fill-rule="evenodd" clip-rule="evenodd" d="M1884 10.6682L1844.44 17.4167L1813.16 29.5445C1798.95 36.5978 1735.65 85.9808 1586.83 38.3009C1545.1 10.6682 1388.18 2.94044 1284.66 1.09218C1075.65 1.09218 1117.16 18.0699 1026.86 23.6901C936.573 29.3103 917.377 5.07316 827.086 6.94657C736.795 8.5858 594.833 64.0602 504.542 62.1868C415.455 60.3134 325.164 38.3009 234.873 38.3009C144.582 38.3009 54.291 60.3134 8.54357 71.5538L-36.0001 82.5601V-16.9645H8.54357C54.291 -16.9645 144.582 -16.9645 234.873 -16.9645C325.164 -16.9645 415.455 -16.9645 504.542 -16.9645C594.833 -16.9645 685.125 -16.9645 775.416 -16.9645C865.707 -16.9645 955.998 -16.9645 1046.29 -16.9645C1136.58 -16.9645 1226.87 -16.9645 1317.16 -16.9645C1406.25 -16.9645 1496.54 -16.9645 1586.83 -16.9645C1677.12 -16.9645 1767.41 -16.9645 1813.16 -16.9645H1884V10.6682Z" fill="#496300"/>
</svg>
