<svg width="110" height="110" viewBox="0 0 110 110" fill="none" xmlns="http://www.w3.org/2000/svg">
<path d="M79.0625 55C81.7975 55 84.4206 56.0865 86.3545 58.0205C88.2885 59.9544 89.375 62.5775 89.375 65.3125V68.75C89.375 82.3006 76.5875 96.25 55 96.25C33.4125 96.25 20.625 82.3006 20.625 68.75V65.3125C20.625 62.5775 21.7115 59.9544 23.6455 58.0205C25.5794 56.0865 28.2025 55 30.9375 55H79.0625ZM55 10.3125C60.0142 10.3125 64.8231 12.3044 68.3687 15.85C71.9143 19.3956 73.9062 24.2045 73.9062 29.2188C73.9062 34.233 71.9143 39.0419 68.3687 42.5875C64.8231 46.1331 60.0142 48.125 55 48.125C49.9858 48.125 45.1769 46.1331 41.6313 42.5875C38.0857 39.0419 36.0938 34.233 36.0938 29.2188C36.0938 24.2045 38.0857 19.3956 41.6313 15.85C45.1769 12.3044 49.9858 10.3125 55 10.3125Z" fill="#B13D0C"/>
</svg>
