<svg width="110" height="110" viewBox="0 0 110 100" fill="none" xmlns="http://www.w3.org/2000/svg">
<path d="M55.3771 14C50.8626 14 46.3923 14.9268 42.2215 16.7275C38.0507 18.5283 34.261 21.1676 31.0688 24.4949C24.6219 31.2147 21 40.3287 21 49.8319C21 59.3351 24.6219 68.4491 31.0688 75.1689C34.261 78.4962 38.0507 81.1355 42.2215 82.9363C46.3923 84.737 50.8626 85.6638 55.3771 85.6638C64.4944 85.6638 73.2384 81.8887 79.6853 75.1689C86.1323 68.4491 89.7541 59.3351 89.7541 49.8319C89.7541 45.1264 88.8649 40.4669 87.1373 36.1196C85.4097 31.7723 82.8775 27.8222 79.6853 24.4949C76.4931 21.1676 72.7034 18.5283 68.5326 16.7275C64.3618 14.9268 59.8915 14 55.3771 14ZM69.8154 64.8813L51.9394 53.4151V31.9159H57.0959V50.5485L72.5656 60.2231L69.8154 64.8813Z" fill="#B13D0C"/>
</svg>
